<svg version="1.1" xmlns="http://www.w3.org/2000/svg" style="display: block;" viewBox="0 0 2048 2048" width="2048" height="2048" preserveAspectRatio="none"><metadata></metadata>
<path transform="translate(0,0)" fill="rgb(14,13,13)" d="M 1020.21 522.455 C 1297.38 520.005 1524.1 742.657 1526.66 1019.83 C 1529.22 1297.01 1306.66 1523.81 1029.48 1526.49 C 752.151 1529.16 525.191 1306.45 522.628 1029.11 C 520.066 751.777 742.871 524.906 1020.21 522.455 z M 870.956 1426.74 C 871.979 1419.3 872.061 1416.61 864.467 1414.44 C 860.736 1422.17 863.62 1424.04 870.956 1426.74 z M 1152.07 641.121 C 1161.56 640.988 1175.2 639.568 1185.19 639.071 C 1190.88 639.405 1198.52 639.017 1204.33 638.872 C 1210.03 639.849 1214.21 638.77 1219.91 638.312 C 1217.32 636.454 1213.84 633.279 1211.04 632.757 C 1205.14 629.918 1183.15 619.68 1177.32 618.277 C 1168.02 614.453 1158.52 611.139 1148.87 608.349 C 1147.72 610.143 1146.97 610.427 1145.92 611.914 C 1146.33 613.083 1147.95 612.588 1148.64 613.471 C 1148.51 614.446 1147.48 614.558 1146.67 614.43 L 1146.7 614.411 L 1145.58 614.442 L 1145.52 614.335 L 1145.58 614.282 L 1145.54 614.413 C 1147.3 617.078 1159.63 621.234 1161.27 616.032 C 1162.34 612.637 1166.97 618.088 1163.92 620.546 C 1162.38 622.514 1164.69 626.739 1164.53 627.402 C 1165.33 626.798 1142.39 628.507 1141.12 631.898 C 1140.45 633.679 1142.19 633.317 1143.23 633.482 C 1147.62 635.716 1140.75 637.929 1141.08 637.505 C 1141.09 637.616 1141.09 637.727 1141.1 637.838 C 1142.3 639.266 1148.47 639.813 1152.07 641.121 z M 843.915 630.492 C 818.411 640.495 763.669 676.607 744.271 695.814 C 750.495 694.603 752.605 691.797 757.445 687.7 C 775.387 672.508 795.704 659.942 815.795 647.75 C 814.822 648.341 827.176 649.385 827.02 644.519 C 825.538 643.297 824.041 646.096 819.664 645.942 C 819.566 645.86 819.469 645.779 819.371 645.698 C 821.311 644.567 830.12 639.394 831.452 639.596 C 831.394 640.135 831.138 640.296 831.209 640.66 C 832.7 641.315 840.916 640.259 842.19 638.055 C 843.431 635.909 841.822 635.309 841.625 634.475 C 842.841 632.079 843.076 633.701 843.915 630.492 z M 1327.13 774.591 C 1329.28 766.313 1327.79 757.559 1328.64 749.056 C 1328.87 746.702 1330.43 742.842 1333.47 743.564 C 1334.73 743.864 1333.37 747.338 1335.99 746.662 C 1337.18 746.229 1339.24 741.708 1339.77 740.528 C 1342.91 740.792 1339.39 752.823 1353.58 743.65 C 1349.58 738.591 1340.91 728.769 1336.29 724.221 C 1334.79 722.165 1326.48 711.88 1327.12 720.442 L 1327.2 721.907 C 1327.08 723.829 1327.06 724.964 1327.13 726.882 C 1326.98 733.762 1326.98 740.645 1327.15 747.525 C 1326.71 755.043 1326.81 767.101 1327.13 774.591 z M 942.978 1464.34 C 942.654 1468.86 942.238 1470.37 944.06 1474.06 C 944.06 1473.98 943.764 1469.5 944.838 1470.26 C 949.872 1473.78 957.722 1465.19 950.484 1462.62 C 946.84 1461.32 945.995 1465.95 942.978 1464.34 z M 1084.39 1454.72 C 1087.39 1454.23 1094.69 1453.31 1097.11 1452.23 C 1098.55 1447.93 1108.58 1448.84 1112.07 1445.09 C 1112.22 1444.93 1115.11 1443.28 1115.3 1443.17 C 1112.2 1441.92 1108.76 1440.97 1105.91 1439.21 C 1105.01 1438.65 1102.8 1435.35 1102.36 1435.33 C 1098.47 1435.19 1095.56 1442.48 1092.61 1444.3 C 1092.2 1444.41 1091.79 1444.52 1091.38 1444.63 C 1089.52 1446.51 1086.23 1452.11 1084.39 1454.72 z M 1122.36 1309.71 C 1125.42 1306.52 1121.83 1243.97 1123.7 1240.88 C 1124.87 1240.43 1129.39 1240.59 1129.34 1238.17 C 1129.25 1234.02 1127.02 1234.02 1124.52 1233.74 L 1124.53 1233.65 C 1126.91 1232.75 1128.18 1234.45 1130.74 1232.5 C 1126.09 1232.25 1122.03 1230.78 1122.18 1235.97 C 1122.89 1260.21 1121.45 1285.59 1122.36 1309.71 z"></path>
<path transform="translate(0,0)" fill="rgb(234,231,224)" d="M 843.915 630.492 C 905.586 596.97 1004.51 584.071 1073.66 592.753 C 1100.16 596.081 1123.08 601.575 1148.87 608.349 C 1147.72 610.143 1146.97 610.427 1145.92 611.914 C 1146.33 613.083 1147.95 612.588 1148.64 613.471 C 1148.51 614.446 1147.48 614.558 1146.67 614.43 L 1146.7 614.411 L 1145.58 614.442 L 1145.52 614.335 L 1145.58 614.282 L 1145.54 614.413 C 1147.3 617.078 1159.63 621.234 1161.27 616.032 C 1162.34 612.637 1166.97 618.088 1163.92 620.546 C 1162.38 622.514 1164.69 626.739 1164.53 627.402 C 1165.33 626.798 1142.39 628.507 1141.12 631.898 C 1140.45 633.679 1142.19 633.317 1143.23 633.482 C 1147.62 635.716 1140.75 637.929 1141.08 637.505 C 1141.09 637.616 1141.09 637.727 1141.1 637.838 C 1142.3 639.266 1148.47 639.813 1152.07 641.121 C 1132.11 643.82 1116.13 646.051 1096.58 651.31 C 1033.59 668.712 978.191 706.626 939.164 759.051 C 886.91 827.853 874.29 898.92 874.522 982.398 C 815.385 994.438 763 1025.69 729.845 1076.73 C 695.52 1129.56 689.874 1174.67 689.737 1235.17 L 873.651 1235.05 C 874.037 1299.66 873.998 1364.26 873.534 1428.86 C 864.464 1426.11 856.308 1422.4 847.666 1418.62 C 759.399 1379.96 688.542 1311.5 643.104 1226.66 C 589.804 1126.72 578.346 1009.71 611.245 901.334 C 631.835 833.381 668.438 771.364 717.978 720.499 C 722.034 716.338 739.901 698.623 744.271 695.814 C 750.495 694.603 752.605 691.797 757.445 687.7 C 775.387 672.508 795.704 659.942 815.795 647.75 C 814.822 648.341 827.176 649.385 827.02 644.519 C 825.538 643.297 824.041 646.096 819.664 645.942 C 819.566 645.86 819.469 645.779 819.371 645.698 C 821.311 644.567 830.12 639.394 831.452 639.596 C 831.394 640.135 831.138 640.296 831.209 640.66 C 832.7 641.315 840.916 640.259 842.19 638.055 C 843.431 635.909 841.822 635.309 841.625 634.475 C 842.841 632.079 843.076 633.701 843.915 630.492 z M 870.956 1426.74 C 871.979 1419.3 872.061 1416.61 864.467 1414.44 C 860.736 1422.17 863.62 1424.04 870.956 1426.74 z"></path>
<path transform="translate(0,0)" fill="rgb(234,231,224)" fill-opacity="0.666667" d="M 864.467 1414.44 C 872.061 1416.61 871.979 1419.3 870.956 1426.74 C 863.62 1424.04 860.736 1422.17 864.467 1414.44 z"></path>
<path transform="translate(0,0)" fill="rgb(234,231,224)" d="M 942.831 1050.02 C 943.007 946.956 936.547 855.945 1016.91 776.229 C 1059.84 733.648 1114.5 711.682 1174.45 706.555 C 1199.13 704.745 1233.42 705.932 1258.79 706.102 L 1258.7 804.091 C 1196.69 803.935 1144.82 800.574 1096.58 848.685 C 1037.69 907.419 1050.06 976.087 1049.21 1051.5 C 1117.07 1052.29 1185.61 1051.75 1253.55 1051.8 C 1245.83 1091.14 1230.56 1118.69 1196.68 1142.44 C 1155.9 1171.03 1101.67 1163.78 1052.79 1164.23 L 1052.77 1279.25 C 1052.77 1305.07 1054.72 1342.09 1049.09 1366.05 C 1042.95 1392.67 1029.55 1417.06 1010.38 1436.52 C 995.353 1451.64 965.498 1471.48 944.06 1474.06 C 944.06 1473.98 943.764 1469.5 944.838 1470.26 C 949.872 1473.78 957.722 1465.19 950.484 1462.62 C 946.84 1461.32 945.995 1465.95 942.978 1464.34 L 942.886 1165.52 C 884.694 1165.42 824.143 1166.42 766.206 1165.59 C 774.112 1128.07 796.729 1095.28 828.997 1074.56 C 867.308 1049.58 899.279 1049.92 942.831 1050.02 z"></path>
<path transform="translate(0,0)" fill="rgb(234,231,224)" d="M 1327.13 774.591 C 1329.28 766.313 1327.79 757.559 1328.64 749.056 C 1328.87 746.702 1330.43 742.842 1333.47 743.564 C 1334.73 743.864 1333.37 747.338 1335.99 746.662 C 1337.18 746.229 1339.24 741.708 1339.77 740.528 C 1342.91 740.792 1339.39 752.823 1353.58 743.65 C 1429.58 835.285 1465.58 944.821 1454.62 1063.73 C 1442.98 1179.43 1386.2 1285.87 1296.59 1359.98 C 1243.34 1404.15 1165.79 1442.08 1097.11 1452.23 C 1098.55 1447.93 1108.58 1448.84 1112.07 1445.09 C 1112.22 1444.93 1115.11 1443.28 1115.3 1443.17 C 1112.2 1441.92 1108.76 1440.97 1105.91 1439.21 C 1105.01 1438.65 1102.8 1435.35 1102.36 1435.33 C 1098.47 1435.19 1095.56 1442.48 1092.61 1444.3 C 1092.2 1444.41 1091.79 1444.52 1091.38 1444.63 C 1114.69 1399.26 1121.3 1359.89 1122.36 1309.71 C 1125.42 1306.52 1121.83 1243.97 1123.7 1240.88 C 1124.87 1240.43 1129.39 1240.59 1129.34 1238.17 C 1129.25 1234.02 1127.02 1234.02 1124.52 1233.74 L 1124.53 1233.65 C 1126.91 1232.75 1128.18 1234.45 1130.74 1232.5 C 1246.22 1224.31 1319.53 1140.61 1325.63 1027.13 C 1326.44 1012.05 1326.13 996.899 1326.08 981.798 L 1119.46 981.896 C 1118.81 950.631 1123.88 923.84 1146.53 900.529 C 1158.25 888.408 1173.08 879.756 1189.39 875.527 C 1205.95 871.215 1234.2 872.528 1252.37 872.575 C 1277.26 872.737 1302.16 872.728 1327.05 872.546 C 1326.98 840.314 1326.43 806.716 1327.13 774.591 z"></path>
<path transform="translate(0,0)" fill="rgb(234,231,224)" fill-opacity="0.854902" d="M 1148.87 608.349 C 1158.52 611.139 1168.02 614.453 1177.32 618.277 C 1175.18 618.82 1165.78 619.81 1168.41 623.391 C 1176.65 634.579 1155.33 629.637 1153.16 634.194 C 1153.44 637.614 1179.64 637.918 1185.19 639.071 C 1175.2 639.568 1161.56 640.988 1152.07 641.121 C 1148.47 639.813 1142.3 639.266 1141.1 637.838 C 1141.09 637.727 1141.09 637.616 1141.08 637.505 C 1140.75 637.929 1147.62 635.716 1143.23 633.482 C 1142.19 633.317 1140.45 633.679 1141.12 631.898 C 1142.39 628.507 1165.33 626.798 1164.53 627.402 C 1164.69 626.739 1162.38 622.514 1163.92 620.546 C 1166.97 618.088 1162.34 612.637 1161.27 616.032 C 1159.63 621.234 1147.3 617.078 1145.54 614.413 L 1145.58 614.282 L 1145.52 614.335 L 1145.58 614.442 L 1146.7 614.411 L 1146.67 614.43 C 1147.48 614.558 1148.51 614.446 1148.64 613.471 C 1147.95 612.588 1146.33 613.083 1145.92 611.914 C 1146.97 610.427 1147.72 610.143 1148.87 608.349 z"></path>
<path transform="translate(0,0)" fill="rgb(234,231,224)" fill-opacity="0.72549" d="M 1177.32 618.277 C 1183.15 619.68 1205.14 629.918 1211.04 632.757 C 1201.86 632.66 1198.22 628.406 1189.49 626.262 C 1181.79 624.374 1180.69 628.73 1176.22 634.141 C 1185.5 635.502 1197.27 634.563 1204.33 638.872 C 1198.52 639.017 1190.88 639.405 1185.19 639.071 C 1179.64 637.918 1153.44 637.614 1153.16 634.194 C 1155.33 629.637 1176.65 634.579 1168.41 623.391 C 1165.78 619.81 1175.18 618.82 1177.32 618.277 z"></path>
<path transform="translate(0,0)" fill="rgb(234,231,224)" fill-opacity="0.898039" d="M 744.271 695.814 C 763.669 676.607 818.411 640.495 843.915 630.492 C 843.076 633.701 842.841 632.079 841.625 634.475 C 841.822 635.309 843.431 635.909 842.19 638.055 C 840.916 640.259 832.7 641.315 831.209 640.66 C 831.138 640.296 831.394 640.135 831.452 639.596 C 830.12 639.394 821.311 644.567 819.371 645.698 C 819.469 645.779 819.566 645.86 819.664 645.942 C 824.041 646.096 825.538 643.297 827.02 644.519 C 827.176 649.385 814.822 648.341 815.795 647.75 C 795.704 659.942 775.387 672.508 757.445 687.7 C 752.605 691.797 750.495 694.603 744.271 695.814 z"></path>
<path transform="translate(0,0)" fill="rgb(234,231,224)" fill-opacity="0.898039" d="M 1336.29 724.221 C 1340.91 728.769 1349.58 738.591 1353.58 743.65 C 1339.39 752.823 1342.91 740.792 1339.77 740.528 C 1339.24 741.708 1337.18 746.229 1335.99 746.662 C 1333.37 747.338 1334.73 743.864 1333.47 743.564 C 1330.43 742.842 1328.87 746.702 1328.64 749.056 C 1327.79 757.559 1329.28 766.313 1327.13 774.591 C 1326.81 767.101 1326.71 755.043 1327.15 747.525 C 1327.72 743.804 1327.89 730.491 1328.47 729.472 C 1330.69 728.326 1333.57 736.904 1335.34 736.816 C 1346.24 736.277 1336.58 730.638 1336.29 724.221 z M 1346.95 742.539 C 1347.69 740.244 1348.02 738.484 1345.21 740.354 C 1344.65 742.09 1344.61 744.568 1346.95 742.539 z"></path>
<path transform="translate(0,0)" fill="rgb(234,231,224)" fill-opacity="0.866667" d="M 1345.21 740.354 C 1348.02 738.484 1347.69 740.244 1346.95 742.539 C 1344.61 744.568 1344.65 742.09 1345.21 740.354 z"></path>
<path transform="translate(0,0)" fill="rgb(234,231,224)" fill-opacity="0.203922" d="M 1176.22 634.141 C 1180.69 628.73 1181.79 624.374 1189.49 626.262 C 1198.22 628.406 1201.86 632.66 1211.04 632.757 C 1213.84 633.279 1217.32 636.454 1219.91 638.312 C 1214.21 638.77 1210.03 639.849 1204.33 638.872 C 1197.27 634.563 1185.5 635.502 1176.22 634.141 z"></path>
<path transform="translate(0,0)" fill="rgb(234,231,224)" fill-opacity="0.407843" d="M 1091.38 1444.63 C 1091.79 1444.52 1092.2 1444.41 1092.61 1444.3 C 1095.56 1442.48 1098.47 1435.19 1102.36 1435.33 C 1102.8 1435.35 1105.01 1438.65 1105.91 1439.21 C 1108.76 1440.97 1112.2 1441.92 1115.3 1443.17 C 1115.11 1443.28 1112.22 1444.93 1112.07 1445.09 C 1108.58 1448.84 1098.55 1447.93 1097.11 1452.23 C 1094.69 1453.31 1087.39 1454.23 1084.39 1454.72 C 1086.23 1452.11 1089.52 1446.51 1091.38 1444.63 z M 1102.69 1445.56 C 1103.8 1444.51 1103.87 1442.77 1102.86 1441.63 C 1101.86 1440.48 1100.12 1440.34 1098.94 1441.3 C 1098.13 1441.96 1097.74 1443 1097.93 1444.03 C 1098.12 1445.06 1098.86 1445.89 1099.86 1446.21 C 1100.85 1446.53 1101.94 1446.29 1102.69 1445.56 z"></path>
<path transform="translate(0,0)" fill="rgb(234,231,224)" fill-opacity="0.219608" d="M 1098.94 1441.3 C 1100.12 1440.34 1101.86 1440.48 1102.86 1441.63 C 1103.87 1442.77 1103.8 1444.51 1102.69 1445.56 C 1101.94 1446.29 1100.85 1446.53 1099.86 1446.21 C 1098.86 1445.89 1098.12 1445.06 1097.93 1444.03 C 1097.74 1443 1098.13 1441.96 1098.94 1441.3 z"></path>
<path transform="translate(0,0)" fill="rgb(234,231,224)" fill-opacity="0.894118" d="M 1122.36 1309.71 C 1121.45 1285.59 1122.89 1260.21 1122.18 1235.97 C 1122.03 1230.78 1126.09 1232.25 1130.74 1232.5 C 1128.18 1234.45 1126.91 1232.75 1124.53 1233.65 L 1124.52 1233.74 C 1127.02 1234.02 1129.25 1234.02 1129.34 1238.17 C 1129.39 1240.59 1124.87 1240.43 1123.7 1240.88 C 1121.83 1243.97 1125.42 1306.52 1122.36 1309.71 z"></path>
<path transform="translate(0,0)" fill="rgb(234,231,224)" fill-opacity="0.752941" d="M 1327.2 721.907 L 1327.12 720.442 C 1326.48 711.88 1334.79 722.165 1336.29 724.221 C 1336.58 730.638 1346.24 736.277 1335.34 736.816 C 1333.57 736.904 1330.69 728.326 1328.47 729.472 C 1327.89 730.491 1327.72 743.804 1327.15 747.525 C 1326.98 740.645 1326.98 733.762 1327.13 726.882 C 1329.56 725.617 1331.99 730.122 1333.84 727.169 C 1334.04 722.614 1330.22 722.675 1327.2 721.907 z"></path>
<path transform="translate(0,0)" fill="rgb(234,231,224)" fill-opacity="0.627451" d="M 942.978 1464.34 C 945.995 1465.95 946.84 1461.32 950.484 1462.62 C 957.722 1465.19 949.872 1473.78 944.838 1470.26 C 943.764 1469.5 944.06 1473.98 944.06 1474.06 C 942.238 1470.37 942.654 1468.86 942.978 1464.34 z"></path>
<path transform="translate(0,0)" fill="rgb(234,231,224)" fill-opacity="0.545098" d="M 1327.2 721.907 C 1330.22 722.675 1334.04 722.614 1333.84 727.169 C 1331.99 730.122 1329.56 725.617 1327.13 726.882 C 1327.06 724.964 1327.08 723.829 1327.2 721.907 z"></path>
</svg>