<svg version="1.1" xmlns="http://www.w3.org/2000/svg" style="display: block;" viewBox="0 0 2688 1536" width="2688" height="1536" preserveAspectRatio="none"><metadata></metadata>
<path transform="translate(0,0)" fill="rgb(250,248,246)" d="M 0 0 L 2688 0 L 2688 1536 L 0 1536 L 0 0 z"></path>
<path transform="translate(0,0)" fill="rgb(4,2,3)" d="M 1651.53 580.696 C 1627.93 577.288 1622.32 562.503 1613.32 542.897 C 1609.21 533.94 1601 520.234 1605.64 510.538 C 1608.73 504.089 1615.19 506.523 1621.09 504.999 C 1622.76 498.655 1624.64 490.631 1632.72 491.299 C 1649.73 492.704 1639.15 471.055 1660.33 479.486 L 1661.37 479.912 C 1662.99 475.641 1637.75 423.023 1634.17 413.35 C 1626.24 391.899 1649.04 385.95 1656.33 397.585 C 1667.99 416.208 1678.7 441.463 1688.66 461.474 C 1693.23 473.793 1706.05 465.105 1708.26 481.327 C 1712.57 512.889 1728.02 538.312 1741.89 566.6 L 1796.41 677.851 C 1802.97 671.09 1810.49 663.659 1816.37 656.327 C 1820.49 651.178 1823.68 644.879 1828.42 639.737 C 1848.4 618.085 1869.17 594.265 1892.45 576.244 C 1901.86 568.963 1914.95 561.973 1925.13 556.346 C 1921.01 546.72 1916.96 537.054 1912.47 527.596 C 1906.62 528.059 1899.68 528.487 1894.18 526.449 C 1859.87 513.736 1867.37 481.903 1875.82 456.249 C 1872.38 452.485 1867.98 449.495 1869.63 444.264 C 1873.18 441.48 1878.38 441.203 1883.06 440.407 C 1895.72 422.515 1904.23 412.372 1925.25 404.43 L 1925.94 407.68 C 1928.34 410.574 1928.84 412.143 1932.02 413.293 L 1931.82 414.715 C 1934.1 415.114 1935.08 415.232 1937.39 415.368 L 1932.9 416.145 C 1930.56 420.8 1932.86 424.141 1936.18 427.637 L 1937.07 427.864 L 1937.22 430.071 C 1937.47 433.912 1939.67 440.734 1942.1 443.709 L 1943.07 443.976 L 1943.17 445.844 C 1942.03 448.684 1944.61 457.267 1945.44 460.81 C 1948.92 462.751 1950.87 461.669 1954.78 462.474 L 1946.44 463.035 C 1945.65 465.627 1945.82 475.165 1946.91 477.432 C 1954.55 477.553 1965.77 476.731 1970.9 482.694 C 1980.7 494.091 1974.99 511.934 1961.23 516.64 L 1963.5 517.903 L 1964.12 520.219 C 1966.21 525.943 1965.71 532.835 1967.05 538.991 C 1968.93 547.685 1972.56 554.381 1970.98 563.426 L 1970.52 567.161 C 1972.95 578.565 1973.59 581.546 1983.07 588.843 C 1981.42 604.45 1979.89 612.256 1994.18 622.492 C 1992.03 637.943 1992.13 644.705 2005.43 654.659 C 2004.39 670.484 2002.68 676.799 2016.41 687.374 C 2014.81 704.362 2014.21 708.569 2027.41 720.864 C 2025.05 738.292 2025.37 741.483 2038.13 753.642 C 2035.95 769.177 2035.24 775.025 2048.52 784.897 C 2046.54 799.676 2045.58 806.644 2058.42 816.607 C 2057.97 822.649 2056.97 829.656 2058.24 835.529 C 2059.54 841.576 2075.23 852.646 2063.61 856.806 L 2066.47 858.464 L 2065.85 859.346 L 2066.43 860.6 C 2071.19 871.115 2067.5 869.955 2078.32 878.594 C 2076.54 894.583 2076.21 901.5 2090.56 911.472 C 2087.8 928.378 2088.28 935.239 2103.26 945.679 C 2100.31 966.435 2102.44 981.37 2127.93 979.461 C 2129.13 978.318 2129.21 977.546 2129.6 975.97 C 2129.2 980.773 2130.1 976.151 2130.58 981.413 C 2116.57 1002.35 2097.34 1013.3 2074.75 1022.3 C 2103.29 1023.05 2132.17 1021.67 2160.68 1022.65 C 2184.89 1023.48 2208.49 1034.18 2225.75 1051.16 C 2248.17 1073.22 2256.33 1098.62 2256.64 1129.47 L 2256.82 1264.11 C 2256.8 1315.62 2265.72 1374.08 2226.69 1412.8 C 2194.83 1444.4 2165.79 1442.41 2125.04 1442.4 L 2060.21 1442.44 L 1801.16 1442.19 C 1794.8 1435.51 1785.42 1423.3 1779.43 1415.95 L 1766.57 1415.5 C 1760.76 1421.5 1751.16 1435.02 1745.79 1442.17 C 1696.65 1442.76 1647.04 1441.83 1597.78 1442.28 C 1569.64 1441.99 1541.34 1443.02 1513.23 1441.84 C 1499.87 1441.28 1492.74 1430.15 1490.45 1418.39 C 1466.62 1415.15 1464.97 1424.15 1453.13 1442.59 C 1438.63 1441.24 1411.92 1442.11 1396.3 1442.12 L 1283.58 1442.29 C 1274.97 1442.31 1238.65 1443.46 1231.63 1440.76 C 1208.78 1431.96 1205.67 1401.6 1231.32 1389.76 C 1228.78 1340.07 1247.01 1303.01 1299.94 1291.8 C 1312.67 1289.11 1324.39 1289.74 1337.34 1289.89 C 1339.7 1286.85 1341.8 1283.9 1345.72 1283.02 C 1359.41 1279.94 1373 1275.8 1385.9 1270.27 C 1393.5 1267.01 1399.05 1259.7 1407.89 1261.76 C 1410.96 1260.21 1410.08 1261.35 1411.28 1258.83 C 1396.18 1253.67 1348.4 1255.86 1344.44 1240.79 C 1333.68 1199.94 1404.9 1235.91 1411.15 1238.17 C 1412.84 1231.25 1416.36 1221.47 1422.44 1217.22 C 1444.18 1202.04 1462.07 1228.65 1474.07 1243.04 C 1482.1 1221.81 1490.55 1200.74 1499.39 1179.84 C 1485.12 1174.4 1470.76 1169.18 1456.33 1164.18 C 1498.07 1091.28 1539.49 1014.7 1580.25 941.055 L 1616.02 876.568 C 1646.76 821.269 1666.11 775.755 1739.14 775.16 C 1710.56 711.068 1682.04 643.721 1651.53 580.696 z"></path>
<path transform="translate(0,0)" fill="rgb(250,248,246)" d="M 2065.85 859.346 L 2066.43 860.6 C 2071.19 871.115 2067.5 869.955 2078.32 878.594 C 2076.54 894.583 2076.21 901.5 2090.56 911.472 C 2087.8 928.378 2088.28 935.239 2103.26 945.679 C 2100.31 966.435 2102.44 981.37 2127.93 979.461 C 2116.4 993.948 2107.06 1003.78 2089.91 1012.23 C 2081.11 1016.56 2071.68 1019.48 2061.98 1020.89 C 2039.33 1024.27 1974.83 1023.76 1951.52 1019.1 C 1942.71 1017.34 1918.11 1008.64 1908.47 1005.32 L 1840.78 982.224 C 1839.14 976.444 1834.83 955.138 1829.53 954.278 C 1829.41 956.543 1837.3 981.838 1838.46 985.934 L 1888.7 1158.96 L 1828.95 1159.09 C 1823.01 1137.85 1814.61 1113.82 1807.82 1092.5 L 1769.87 972.314 C 1764.17 954.225 1758.39 936.153 1752.47 918.151 C 1750.25 911.405 1745.41 897.651 1750.29 891.391 C 1757.2 882.525 1773.5 890.246 1782.02 892.434 C 1788.27 894.245 1794.17 896.237 1800.22 898.026 L 1897.33 926.533 C 1919.41 933.058 1955.22 946.349 1977.31 943.382 C 1991.62 941.555 2004.56 933.94 2013.1 922.313 C 2025.52 905.644 2025.95 888.416 2023.04 868.916 L 2065.85 859.346 z"></path>
<path transform="translate(0,0)" fill="rgb(252,190,26)" d="M 1824.87 648.284 C 1857.22 611.027 1882.99 583.739 1926.27 559.566 C 1929.93 566.686 1932.36 572.515 1935.37 579.859 C 1947.02 575.438 1958.74 571.205 1970.52 567.161 C 1972.95 578.565 1973.59 581.546 1983.07 588.843 C 1981.42 604.45 1979.89 612.256 1994.18 622.492 C 1992.03 637.943 1992.13 644.705 2005.43 654.659 C 2004.39 670.484 2002.68 676.799 2016.41 687.374 C 2014.81 704.362 2014.21 708.569 2027.41 720.864 C 2025.05 738.292 2025.37 741.483 2038.13 753.642 C 2035.95 769.177 2035.24 775.025 2048.52 784.897 C 2046.54 799.676 2045.58 806.644 2058.42 816.607 C 2057.97 822.649 2056.97 829.656 2058.24 835.529 C 2059.54 841.576 2075.23 852.646 2063.61 856.806 C 2056.27 858.027 2048.42 859.778 2041.18 861.541 C 2000.13 871.541 1957.78 879.44 1916.99 890.265 C 1908.37 841.554 1897.25 791.332 1889.49 742.876 L 1896.62 736.864 C 1900.18 740.622 1904.68 746.603 1909.08 748.061 C 1913.16 747.365 1912.65 746.77 1915.97 743.43 L 1960.57 693.356 C 1967.74 685.301 1980.77 671.42 1986.23 662.798 L 1985.54 662.389 C 1979.61 666.544 1973.99 672.602 1969.35 678.147 C 1951.43 699.565 1931.45 719.733 1913.8 741.348 C 1910.15 738.767 1891.64 718.785 1887.09 713.994 L 1824.87 648.284 z"></path>
<path transform="translate(0,0)" fill="rgb(145,145,145)" d="M 1925.94 407.68 C 1928.34 410.574 1928.84 412.143 1932.02 413.293 L 1931.82 414.715 C 1934.1 415.114 1935.08 415.232 1937.39 415.368 L 1932.9 416.145 C 1930.56 420.8 1932.86 424.141 1936.18 427.637 L 1937.07 427.864 L 1937.22 430.071 C 1937.47 433.912 1939.67 440.734 1942.1 443.709 L 1943.07 443.976 L 1943.17 445.844 C 1942.03 448.684 1944.61 457.267 1945.44 460.81 C 1948.92 462.751 1950.87 461.669 1954.78 462.474 L 1946.44 463.035 C 1945.65 465.627 1945.82 475.165 1946.91 477.432 C 1954.55 477.553 1965.77 476.731 1970.9 482.694 C 1980.7 494.091 1974.99 511.934 1961.23 516.64 C 1946.57 517.498 1944.75 513.082 1937.87 501.663 C 1924.52 541.721 1857.79 529.796 1874.85 470.282 C 1879.86 470.215 1895.62 469.436 1898.19 464.925 C 1891.56 464.435 1882.88 466.504 1876.15 467.704 C 1878.16 462.451 1878.63 460.296 1879.75 454.774 C 1877.12 452.41 1873.99 450.286 1874.21 446.667 C 1877.13 444.456 1881.05 444.255 1884.81 443.617 C 1889.43 437.309 1898.85 422.194 1907.07 422.07 C 1912.67 424.672 1910.75 431.343 1917.64 431.442 L 1918.34 429.712 C 1916.73 423.7 1912.55 421.312 1907.62 417.904 C 1913.78 413.237 1918.87 410.573 1925.94 407.68 z"></path>
<path transform="translate(0,0)" fill="rgb(4,2,3)" d="M 1899.35 432.469 C 1910.5 434.3 1902.33 442.348 1897.17 446.077 C 1887.06 443.627 1894.89 436.581 1899.35 432.469 z"></path>
<path transform="translate(0,0)" fill="rgb(4,2,3)" d="M 1950.22 487.16 C 1955.38 486.868 1967.4 485.487 1968.81 495.547 C 1968.93 496.447 1966.39 499.478 1966.36 495.945 C 1965.19 494.187 1964.37 492.663 1962.79 491.631 C 1957.8 487.524 1951.65 491.691 1947.94 491.764 C 1942.51 491.87 1950.31 487.11 1950.22 487.16 z"></path>
<path transform="translate(0,0)" fill="rgb(145,145,145)" d="M 1936.96 517.837 C 1947.04 527.186 1952.15 527.367 1964.12 520.219 C 1966.21 525.943 1965.71 532.835 1967.05 538.991 C 1968.93 547.685 1972.56 554.381 1970.98 563.426 C 1961.55 566.154 1946.99 571.676 1937.39 575.226 L 1915.95 527.079 C 1924.21 523.592 1928 520.699 1936.96 517.837 z"></path>
<path transform="translate(0,0)" fill="rgb(250,248,246)" d="M 2008.75 1026 L 2106.98 1025.74 C 2129.13 1025.7 2156.54 1024.08 2177.99 1028.5 C 2205.98 1034.26 2230 1054.88 2242.84 1080.02 C 2252.96 1099.83 2253.41 1117.62 2253.52 1139.44 L 2253.51 1271.02 C 2253.5 1289.34 2253.22 1308.3 2253.42 1326.54 C 2253.79 1360.2 2248.06 1387.33 2223.13 1411.79 C 2193.48 1440.88 2162.2 1439.27 2124.25 1439.27 L 2068.87 1439.24 L 1922.51 1439.12 C 1934.78 1428.38 1940.96 1415.71 1931.94 1399.77 C 1930 1396.34 1918.5 1390.65 1918.52 1388.28 C 1918.68 1369.84 1914.03 1352.51 1910.45 1334.57 L 1896.53 1265.36 L 1886.15 1265.56 C 1881.01 1246.43 1874.14 1225.29 1868.39 1206.15 L 1906.43 1206.23 C 1902.32 1195.63 1897.26 1176.45 1893.91 1165.02 L 1871.19 1087.03 C 1915.59 1069.49 1963.97 1044.67 2008.75 1026 z"></path>
<path transform="translate(0,0)" fill="rgb(4,2,3)" d="M 2157.82 1147.62 C 2163.71 1149.15 2156.53 1153.72 2153.73 1156.42 C 2134.78 1174.68 2116.11 1193.25 2097.07 1211.41 C 2094.32 1210.31 2094.14 1209.47 2096.33 1207.32 C 2116.65 1187.5 2138.11 1167.98 2157.82 1147.62 z"></path>
<path transform="translate(0,0)" fill="rgb(250,248,246)" d="M 1730.31 778.391 L 1740.94 778.81 C 1742.68 781.617 1744.55 784.345 1746.53 786.986 C 1770.79 818.733 1811.65 815.028 1840.82 792.265 C 1859.92 798.191 1879.24 804.531 1898.5 809.811 L 1914.43 893.991 C 1949.44 885.724 1984.52 877.7 2019.64 869.919 C 2028.17 914.22 1997.39 950.388 1952.79 938.666 C 1893.03 922.959 1833.39 903.709 1774.02 886.38 C 1767.92 884.599 1761.02 882.554 1754.79 884.388 C 1734.53 890.355 1750.93 924.539 1755.48 938.254 L 1825.53 1159.01 L 1706.93 1158.85 C 1690.78 1098.21 1675.33 1037.39 1660.58 976.398 C 1653.76 947.215 1645.87 917.611 1642.61 887.833 C 1635.93 826.946 1669.03 783.739 1730.31 778.391 z"></path>
<path transform="translate(0,0)" fill="rgb(145,145,145)" d="M 1689.75 471.022 C 1695.88 470.913 1699.96 471.092 1702.98 477.321 C 1708.74 489.188 1708.79 507.129 1714.51 518.728 C 1726.29 542.635 1738.21 566.483 1749.91 590.442 L 1784.86 661.537 C 1790.64 673.484 1806.86 709.211 1813.99 717.484 L 1814.61 716.783 C 1811.64 707.012 1802.81 690.315 1798.06 680.698 C 1806.92 671.515 1815.72 662.265 1824.44 652.951 C 1830.51 663.264 1837.84 680.056 1843.08 691.173 C 1853.3 712.504 1863.28 733.951 1873.02 755.508 C 1859.68 768.507 1849.85 779.188 1835.36 791.958 C 1810.46 812.347 1768.52 811.859 1750.08 786.094 C 1737.07 767.915 1722.14 728.267 1712.47 706.481 C 1693.39 663.454 1673.96 620.583 1654.19 577.874 C 1645.29 576.394 1625.3 569.777 1625.63 558.946 C 1629.03 556.518 1630.84 557.839 1636.15 558.542 C 1640.46 556.841 1641.41 553.686 1643.73 549.331 C 1648.69 546.973 1651.47 550.415 1655.48 549.159 C 1658.73 548.142 1659.04 542.887 1663.78 541.47 C 1664.91 549.795 1669.3 565.012 1679.43 565.835 L 1679.77 564.661 C 1678.59 563.362 1677.43 562.05 1676.28 560.725 C 1658.51 540.1 1668.76 524.697 1686.43 510.259 C 1685.18 497.556 1679.64 480.448 1689.75 471.022 z"></path>
<path transform="translate(0,0)" fill="rgb(250,248,246)" d="M 1644.77 832.823 C 1644.45 839.673 1638.14 855.597 1638.27 868.56 C 1638.57 900.473 1646.82 932.884 1654.13 963.84 C 1659.99 989.273 1666.25 1014.61 1672.91 1039.85 L 1608.39 1158.43 L 1546.79 1136.98 L 1487.07 1116.05 C 1519.83 1055.24 1554.49 994.357 1588.03 933.876 L 1621.8 873.106 C 1628.5 860.945 1637.32 843.852 1644.77 832.823 z"></path>
<path transform="translate(0,0)" fill="rgb(250,248,246)" d="M 1760.55 1268.95 C 1804.92 1268.91 1849.65 1269.32 1893.97 1268.78 L 1901.64 1306.86 C 1849.78 1306.76 1807.53 1332.9 1805.5 1388.59 L 1652.32 1388.73 L 1652.19 1379.25 C 1652.03 1368.66 1648.54 1341.39 1649.06 1335.39 C 1677.12 1330.93 1651.63 1310.99 1645.33 1299.06 L 1646.32 1298 C 1661.41 1299.2 1665.72 1328.32 1679.54 1326.85 C 1705.76 1324.06 1672.69 1295.58 1672.06 1289.65 C 1684.96 1284.73 1693.32 1314.58 1703.64 1313.39 C 1729.39 1310.44 1700.9 1283.83 1696.26 1278.23 L 1696.68 1277.32 C 1707.75 1280.45 1716.97 1300.21 1726.78 1298.62 C 1746.21 1295.47 1728.36 1277.18 1723.15 1272.31 C 1737.09 1276.97 1759.01 1293.46 1760.55 1268.95 z"></path>
<path transform="translate(0,0)" fill="rgb(250,248,246)" d="M 1510.91 1392.15 L 1511.74 1392.12 C 1535.86 1391.16 1566.53 1391.99 1591.27 1392 L 1744.44 1392.04 L 1853.87 1391.97 C 1873.4 1391.96 1893.01 1391.65 1912.51 1392.38 C 1924.35 1392.82 1932.38 1402.8 1932.47 1414.31 C 1932.5 1421.14 1929.78 1427.7 1924.93 1432.51 C 1916.14 1441.14 1901.64 1439.02 1889.5 1438.97 L 1802.83 1438.9 C 1795.46 1430.83 1788.64 1421.47 1780.82 1412.9 C 1775.53 1412.95 1770.81 1412.39 1765.56 1411.87 C 1758.32 1419.05 1750.2 1430.56 1743.87 1438.94 C 1720.62 1439.41 1518.07 1440.69 1508.84 1437.55 C 1503.32 1435.68 1498.67 1431.09 1496.13 1425.92 C 1493.15 1419.89 1492.82 1412.9 1495.2 1406.62 C 1498.25 1398.75 1503.77 1395.35 1510.91 1392.15 z"></path>
<path transform="translate(0,0)" fill="rgb(250,248,246)" d="M 1487.17 1269.21 C 1519.59 1268.05 1558.12 1268.95 1590.99 1268.92 C 1592.77 1276.01 1594.6 1283.09 1596.47 1290.16 C 1534.91 1294.06 1502.62 1326.48 1505.44 1388.72 L 1376.93 1388.64 C 1376.87 1375.32 1376.14 1362.01 1374.74 1348.76 C 1374.1 1344.34 1373.11 1339.75 1373.7 1335.4 C 1405.47 1333.22 1378.07 1310.91 1369.44 1298.83 C 1383.75 1290.22 1395.27 1329.82 1407.87 1325.82 C 1430.24 1318.71 1400.35 1296.16 1399.24 1290.23 C 1412.7 1285.09 1427.14 1332.04 1439.56 1305.96 C 1442.83 1299.09 1425.12 1282.12 1419.84 1273.95 L 1419.17 1272.9 C 1429.61 1279.64 1447.81 1303.61 1459.35 1296.17 C 1466.27 1285.04 1456.42 1278.45 1448.94 1271.82 C 1463.31 1277.09 1483.78 1293.7 1487.17 1269.21 z"></path>
<path transform="translate(0,0)" fill="rgb(250,248,246)" d="M 1234.33 1392.21 C 1258.69 1390.71 1299.28 1391.95 1324.56 1391.95 L 1501.77 1392.21 C 1493.08 1400.08 1492.03 1403.85 1489.59 1415.08 C 1488.18 1414.9 1486.77 1414.73 1485.35 1414.57 C 1475.94 1413.49 1473.36 1413.2 1466.11 1418.97 C 1460.42 1425.28 1456.16 1431.97 1451.41 1438.98 L 1306.18 1439.03 C 1285.7 1439.04 1265.28 1439.1 1244.74 1438.99 C 1233.58 1438.93 1225.05 1436.93 1219.46 1425.87 C 1216.7 1420.43 1216.06 1415.22 1217.55 1409.28 C 1220 1399.53 1225.85 1395.89 1234.33 1392.21 z"></path>
<path transform="translate(0,0)" fill="rgb(250,248,246)" d="M 1314.2 1293.42 C 1323.39 1293.01 1330.09 1293.14 1339.26 1293.51 L 1367.56 1327.55 C 1372.48 1351.03 1372.93 1364.71 1373.36 1388.75 L 1294.5 1388.76 L 1234.95 1388.77 C 1234.88 1388.2 1234.82 1387.62 1234.76 1387.05 C 1229.47 1333.53 1261.23 1297.75 1314.2 1293.42 z"></path>
<path transform="translate(0,0)" fill="rgb(250,248,246)" d="M 1585.52 1294.34 C 1595.23 1293.41 1605.43 1293.75 1615.22 1293.83 C 1622.49 1303.66 1632.75 1315.75 1639.51 1325.24 C 1649.27 1338.95 1648.75 1371.66 1648.65 1388.73 L 1573.11 1388.7 C 1551.73 1388.48 1530.36 1388.45 1508.98 1388.59 C 1505.84 1335.15 1531.57 1301.44 1585.52 1294.34 z"></path>
<path transform="translate(0,0)" fill="rgb(250,248,246)" d="M 1485.43 1118.89 C 1506.71 1127.38 1531.3 1135.22 1553.17 1142.84 L 1664.95 1182.23 C 1657.12 1197.33 1649.42 1212.5 1641.85 1227.73 C 1624.22 1217.09 1587.09 1206.25 1566.24 1199.12 L 1461.58 1162.54 C 1468.72 1148.44 1477.72 1132.72 1485.43 1118.89 z"></path>
<path transform="translate(0,0)" fill="rgb(250,248,246)" d="M 1708.09 1162.2 L 1889.38 1162.17 C 1893.72 1175.64 1897.79 1189.2 1901.58 1202.84 L 1719.39 1202.77 C 1715.35 1189.32 1711.59 1175.8 1708.09 1162.2 z"></path>
<path transform="translate(0,0)" fill="rgb(250,248,246)" d="M 1889.52 1310.4 L 1902.39 1310.29 C 1905.99 1332.5 1911.39 1354.4 1915.32 1376.5 C 1916.06 1380.62 1915.33 1383.45 1912.74 1386.59 C 1906.36 1390.44 1892.26 1388.81 1884.42 1388.78 L 1836.5 1388.73 C 1827.26 1388.73 1818.02 1388.68 1808.78 1388.58 C 1810.48 1341.6 1844.52 1314.08 1889.52 1310.4 z"></path>
<path transform="translate(0,0)" fill="rgb(250,248,246)" d="M 1673.55 1045.78 C 1675.63 1048.4 1692.27 1115.71 1694.84 1125.72 C 1685.13 1143.47 1675.66 1161.34 1666.41 1179.33 C 1658.67 1176.25 1649.79 1173.24 1641.88 1170.38 C 1631.85 1166.77 1621.77 1163.28 1611.65 1159.91 C 1630.01 1123.61 1653.65 1081.52 1673.55 1045.78 z"></path>
<path transform="translate(0,0)" fill="rgb(145,145,145)" d="M 1495.99 1196.77 C 1529.43 1210.28 1562.98 1223.51 1596.64 1236.46 C 1592.99 1244.87 1589.47 1256.59 1583.81 1263.66 C 1581.82 1266.13 1577.91 1265.45 1574.5 1265.48 L 1494.03 1265.68 C 1487.73 1259.67 1482.08 1251.84 1476.72 1244.91 C 1483.06 1228.83 1489.48 1212.78 1495.99 1196.77 z"></path>
<path transform="translate(0,0)" fill="rgb(145,145,145)" d="M 1753.3 1215.32 C 1792.51 1219.03 1831.45 1223.66 1870.82 1226.27 C 1873.25 1233.89 1881.63 1258.83 1882.48 1265.42 C 1844.76 1265.06 1806.64 1266.08 1768.98 1265.38 C 1763.89 1252.41 1757.19 1229.2 1753.3 1215.32 z"></path>
<path transform="translate(0,0)" fill="rgb(250,248,246)" d="M 1647.58 1223.53 C 1663.54 1192.35 1679.69 1161.27 1696.03 1130.28 C 1702.48 1155.69 1709.46 1180.97 1716.97 1206.09 L 1746.87 1206.4 C 1750.7 1219.08 1755.22 1235.46 1759.57 1247.58 L 1756.33 1248.86 C 1746.44 1237.75 1729.97 1213.38 1714.43 1212.28 C 1697.46 1211.08 1689.71 1223.4 1686.68 1238.15 C 1673.7 1233.14 1660.66 1228.27 1647.58 1223.53 z"></path>
<path transform="translate(0,0)" fill="rgb(250,248,246)" d="M 1608.7 1217.43 C 1612.87 1218.27 1621.19 1221.56 1625.51 1223.12 C 1591.97 1255.06 1671.75 1256.55 1685.84 1258.04 C 1685.26 1263.49 1676.53 1258.28 1669.03 1266.98 L 1668.25 1267.89 C 1662.18 1269.44 1660.28 1270.05 1654.61 1272.66 C 1642.46 1272.37 1616.12 1290.87 1599.97 1290.07 C 1598.32 1283.21 1596.58 1276.4 1594.74 1269.59 C 1593.04 1263.32 1592.04 1267.4 1588.66 1264.1 C 1590.03 1258.1 1605.19 1225.7 1608.7 1217.43 z"></path>
<path transform="translate(0,0)" fill="rgb(250,248,246)" d="M 1842.05 986.317 L 1942.06 1020.43 C 1939.37 1022.65 1939.15 1022.36 1935.73 1023.05 C 1906.41 1022.77 1882.72 1025.04 1859.2 1045.18 L 1842.05 986.317 z"></path>
<path transform="translate(0,0)" fill="rgb(145,145,145)" d="M 1642.89 394.987 C 1644.38 395.09 1645.88 395.199 1647.35 395.475 C 1650.31 396.03 1652.15 397.153 1653.81 399.638 C 1657.9 405.732 1687.41 463.254 1687.53 467.29 C 1687.58 468.951 1681.32 475.054 1680.76 478.781 C 1679.18 489.373 1683.85 500.518 1681.75 510.981 C 1675.73 507.021 1660.51 465.378 1656.19 455.013 C 1649.6 439.176 1639.14 420.243 1635.51 403.755 C 1634.86 400.786 1640.69 396.472 1642.89 394.987 z"></path>
<path transform="translate(0,0)" fill="rgb(250,248,246)" d="M 1710.22 1215.25 C 1716 1215.41 1721.81 1216.17 1726.19 1220.44 C 1735.97 1229.99 1744.08 1241.18 1753.48 1251.14 C 1757.04 1254.92 1760.39 1259.49 1763.02 1263.96 C 1764.24 1266.1 1758.96 1266.23 1757.67 1264.34 C 1755.78 1261.57 1751.2 1260.75 1748.21 1259.85 C 1729.81 1253.17 1707.06 1247.48 1689.63 1239.52 C 1692.8 1226.22 1695.86 1219.01 1710.22 1215.25 z"></path>
<path transform="translate(0,0)" fill="rgb(250,248,246)" d="M 1433.38 1216.11 C 1438.28 1216.08 1445.37 1216.6 1448.95 1220.16 C 1462.22 1233.37 1476.13 1250.07 1487.9 1264.53 C 1483.04 1262.57 1478.32 1260.57 1473.43 1258.65 C 1456.72 1254.35 1429.59 1246.32 1414.27 1239.36 C 1418.31 1226.46 1419.41 1220.5 1433.38 1216.11 z"></path>
<path transform="translate(0,0)" fill="rgb(250,248,246)" d="M 1353.83 1224.05 C 1358.2 1223.79 1364.03 1224.23 1368.07 1225.91 C 1377.15 1229.69 1423.51 1243.83 1426.22 1250.82 C 1424.25 1253.94 1424.05 1253.28 1420.19 1255.26 C 1407.76 1255.01 1320.75 1251.09 1353.83 1224.05 z"></path>
<path transform="translate(0,0)" fill="rgb(250,248,246)" d="M 1628.08 1225.45 C 1635.26 1226.55 1638.36 1231.04 1642.87 1231.23 C 1644.45 1229.23 1645.09 1228.04 1647.42 1226.97 C 1663.42 1232.59 1685.43 1241.15 1700.82 1248.03 C 1702.1 1250.98 1701.47 1251.15 1701.05 1254.9 C 1698.77 1255.02 1689.26 1255.26 1687.52 1254.7 C 1674.69 1250.53 1600.73 1255.48 1628.08 1225.45 z"></path>
<path transform="translate(0,0)" fill="rgb(145,145,145)" d="M 1632.84 493.887 C 1635.36 494.033 1641.16 494.031 1642.62 496.62 C 1647.67 505.555 1652.03 515.123 1656.06 524.564 C 1657.62 528.21 1660.44 533.915 1660.49 537.732 C 1660.52 540.233 1657.51 543.093 1655.62 544.317 L 1652.88 546.063 C 1636.9 545.748 1636.18 519.385 1626.58 507.754 C 1622.39 502.676 1628.11 496.914 1632.84 493.887 z"></path>
<path transform="translate(0,0)" fill="rgb(145,145,145)" d="M 1613.96 507.898 C 1628.34 509.057 1628.03 520.363 1634.47 532.245 C 1640.2 542.813 1644.52 548.64 1633.06 556.19 C 1629.94 555.89 1622.83 554.654 1621.83 551.42 C 1618.71 541.391 1599.41 518.247 1611.37 509.707 L 1613.96 507.898 z"></path>
<path transform="translate(0,0)" fill="rgb(250,248,246)" d="M 1854.99 779.694 C 1867.31 779.637 1880.07 779.896 1892.47 779.903 C 1893.17 783.099 1898.18 804.27 1896.83 805.634 C 1895.65 805.898 1891.49 804.591 1890.15 804.25 C 1889.18 803.893 1888.28 803.561 1887.29 803.254 L 1843.89 789.504 C 1847.57 786.151 1851.27 782.994 1854.99 779.694 z"></path>
<path transform="translate(0,0)" fill="rgb(145,145,145)" d="M 1651.88 480.903 C 1667.33 482.249 1671.16 500.643 1676.43 513.53 C 1669 520.944 1669.13 521.042 1664.88 530.623 C 1664.58 533.702 1663.21 532.883 1662.51 530.732 C 1658 516.793 1647.83 502.476 1645.17 488.565 C 1644.69 486.008 1650.18 482.048 1651.88 480.903 z"></path>
<path transform="translate(0,0)" fill="rgb(250,248,246)" d="M 1649.44 1275.72 C 1650.46 1275.78 1654.5 1275.7 1655.4 1276.63 C 1664.3 1286.06 1672.18 1296.73 1680.13 1306.99 C 1686.31 1314.96 1687.75 1316.48 1681.78 1324.15 C 1670.39 1322.92 1654.77 1294.09 1646.26 1285.36 C 1643.09 1282.11 1647.31 1278.07 1649.44 1275.72 z"></path>
<path transform="translate(0,0)" fill="rgb(250,248,246)" d="M 1346.01 1285.69 C 1347.83 1285.73 1352.67 1285.32 1354.36 1287.24 C 1362.89 1296.95 1371.55 1307.03 1379.8 1316.96 C 1383.26 1321.12 1386.33 1326.33 1382.3 1330.97 L 1380.34 1333.22 C 1379.86 1333.08 1379.38 1332.94 1378.9 1332.81 C 1377.95 1332.54 1376.91 1332.34 1376.01 1331.89 C 1373.77 1330.78 1341.88 1291.8 1341.76 1290.63 C 1341.58 1288.88 1344.91 1286.71 1346.01 1285.69 z"></path>
<path transform="translate(0,0)" fill="rgb(250,248,246)" d="M 1623.2 1284.93 C 1635.59 1286.68 1640.86 1301.28 1649.13 1310.85 C 1656.65 1319.56 1662.06 1324.18 1653.05 1332.89 C 1647.43 1330.48 1646.27 1327.66 1642.5 1322.98 C 1634.92 1313.54 1627.27 1303.64 1619.73 1294.19 C 1615.28 1288.63 1619.27 1287.57 1623.2 1284.93 z"></path>
<path transform="translate(0,0)" fill="rgb(250,248,246)" d="M 1375.97 1275.49 C 1387.29 1275.77 1396.12 1296.04 1404.44 1303.57 C 1406.91 1305.81 1412 1312.75 1412.61 1315.94 C 1413.07 1318.31 1410.28 1321.23 1408.89 1322.94 C 1399.08 1321.97 1386.63 1300.42 1379.01 1292.49 C 1371.63 1284.79 1369 1282.38 1375.97 1275.49 z"></path>
<path transform="translate(0,0)" fill="rgb(250,248,246)" d="M 1399.87 1264.85 C 1400.66 1264.79 1405.75 1264.14 1406.49 1265.05 C 1415.53 1276.2 1429.54 1290.22 1436.74 1302.47 C 1437.77 1304.21 1434.52 1308.73 1433.8 1309.76 C 1429.77 1309.83 1427.16 1310.04 1424.73 1306.62 C 1416.4 1294.93 1404.82 1284.88 1397.2 1273.09 C 1395.71 1270.79 1399.03 1266.1 1399.87 1264.85 z"></path>
<path transform="translate(0,0)" fill="rgb(250,248,246)" d="M 1434.37 1251.43 C 1447.35 1253.04 1467.3 1260.64 1480.02 1265.23 C 1485.78 1267.31 1482.57 1275.62 1480.09 1279.26 C 1468.87 1278.77 1451.78 1268.52 1440.66 1264.39 C 1433.43 1261.72 1431.12 1257.7 1434.37 1251.43 z"></path>
<path transform="translate(0,0)" fill="rgb(250,248,246)" d="M 1675.73 1264.44 C 1685.89 1266.93 1694.51 1283.49 1702.48 1291.13 C 1710.18 1298.49 1713.56 1301.95 1707.26 1310.62 C 1701.43 1309.88 1697.45 1307.54 1694.8 1302.12 C 1690.51 1293.32 1665.76 1276.12 1673.73 1266.74 L 1675.73 1264.44 z"></path>
<path transform="translate(0,0)" fill="rgb(250,248,246)" d="M 1708.59 1250.68 C 1723.32 1254.37 1739.12 1260.85 1753.69 1265.41 C 1759.92 1267.36 1756.55 1275.65 1754.2 1279.2 C 1744.57 1278.56 1725.7 1269.02 1715.9 1265.27 C 1708.41 1262.41 1703.86 1257.96 1708.59 1250.68 z"></path>
<path transform="translate(0,0)" fill="rgb(250,248,246)" d="M 1689.91 1260.05 C 1705.71 1260.32 1710.61 1267.87 1722.41 1276.88 C 1730.87 1283.34 1734.53 1285.27 1729.91 1295.06 C 1716.45 1295.38 1700.15 1270.9 1689.38 1262.69 C 1689.04 1262.43 1689.86 1260.2 1689.91 1260.05 z"></path>
<path transform="translate(0,0)" fill="rgb(250,248,246)" d="M 1415.78 1261.46 C 1429.15 1259.78 1434.17 1265.3 1444.72 1273.78 C 1453.41 1280.75 1461.05 1282.52 1456.67 1294.41 C 1454.53 1294.64 1451.13 1295.38 1449.44 1293.99 C 1444.32 1289.77 1417.04 1265.79 1415.78 1261.46 z"></path>
<path transform="translate(0,0)" fill="rgb(250,248,246)" d="M 1885.98 746.915 C 1887.38 748.474 1887.49 750.258 1887.82 752.476 C 1889.03 760.545 1890.37 768.594 1891.85 776.618 C 1882.78 776.561 1873.84 776.382 1864.75 776.406 C 1863.83 776.405 1858.63 776.76 1858.38 775.47 C 1858.72 774.612 1883.48 749.275 1885.98 746.915 z"></path>
<path transform="translate(0,0)" fill="rgb(250,248,246)" d="M 1366.73 1281.08 C 1367.61 1281.97 1374.79 1293.46 1374.68 1293.77 C 1373.68 1294.49 1367.49 1294.42 1366.08 1294.48 C 1362.94 1291.68 1360.09 1288.15 1357.32 1284.95 C 1360.8 1283.3 1363.06 1282.4 1366.73 1281.08 z"></path>
<path transform="translate(0,0)" fill="rgb(250,248,246)" d="M 1666.75 1270.94 C 1667.2 1271.46 1674.91 1285.56 1674.95 1285.43 C 1674.6 1285.58 1670.13 1286.64 1669.19 1286.92 C 1660.43 1276.77 1655.97 1276.09 1666.75 1270.94 z"></path>
<path transform="translate(0,0)" fill="rgb(250,248,246)" d="M 1390.06 1271.47 C 1395.56 1272.78 1392.57 1274.68 1396.55 1278.85 C 1397.37 1279.71 1401.61 1284.54 1401.64 1285.48 C 1401.37 1285.92 1399.89 1286.93 1399.45 1287.25 L 1398.29 1286.78 C 1396.9 1286.23 1394.38 1285.19 1393.54 1283.93 C 1388.52 1276.38 1382.08 1277.22 1390.06 1271.47 z"></path>
<path transform="translate(0,0)" fill="rgb(250,248,246)" d="M 1638.67 1281.66 C 1639.19 1281.67 1641.83 1281.42 1641.75 1282.58 C 1641.53 1285.93 1647.76 1292.21 1647.93 1294.29 C 1646.92 1294.94 1645.4 1295.21 1644.26 1295.61 C 1639.34 1293.09 1637.67 1290.03 1633.84 1286.1 C 1631.75 1283.96 1637.24 1282.35 1638.67 1281.66 z"></path>
<path transform="translate(0,0)" fill="rgb(188,185,183)" d="M 1411.44 1264.79 C 1415.84 1266.86 1418.17 1269.59 1421.04 1273.41 C 1415.91 1271.87 1414.29 1269.39 1411.44 1264.79 z"></path>
<path transform="translate(0,0)" fill="rgb(212,209,207)" d="M 1942.06 1020.43 C 1946.42 1021.26 1946.65 1021.6 1950.65 1022.89 C 1945.68 1023.04 1940.71 1023.09 1935.73 1023.05 C 1939.15 1022.36 1939.37 1022.65 1942.06 1020.43 z"></path>
<path transform="translate(0,0)" fill="rgb(212,209,207)" d="M 1759.57 1247.58 C 1759.83 1248.49 1761.54 1252.79 1760.39 1253.32 C 1759.31 1252.98 1757.2 1249.83 1756.33 1248.86 L 1759.57 1247.58 z"></path>
<path transform="translate(0,0)" fill="rgb(4,2,3)" d="M 736.54 344.825 C 707.558 351.728 710.629 338.521 698.922 321.794 C 693.988 314.745 694.103 316.675 692.328 307.31 C 691.806 304.551 679.649 302.782 678.619 298.591 C 673.514 288.639 679.641 287.438 681.74 279.481 C 680.311 269.693 661.344 260.799 688.79 248.415 C 690.698 239.972 678.19 220.201 705.381 224.511 C 708.035 222.625 708.019 205.66 720.578 206.904 C 722.13 207.057 731.759 210.963 732.447 209.92 C 734.481 206.835 740.435 191.238 750.734 194.579 C 755.18 196.021 758.275 199.404 762.415 201.509 C 769.286 201.047 779.306 186.105 788.889 203.011 L 789.528 204.153 C 797.315 209.307 823.957 196.21 810.891 232.834 C 808.318 240.045 830.961 249.992 806.262 261.112 L 804.964 261.689 C 812.459 275.972 827.673 308.726 825.371 324.687 C 823.442 338.063 816.918 345.115 806.804 352.907 C 810.66 363.132 814.375 373.409 817.948 383.736 C 840.655 383.605 860.86 382.113 880.787 395.061 C 898.708 406.704 906.538 421.126 911.103 441.403 C 912.175 441.034 913.251 440.675 914.329 440.326 C 923.303 408.042 935.334 375.625 945.062 343.363 C 949.735 327.63 962.142 311.403 979.039 307.92 C 1024.73 298.5 1070.29 289.876 1116.24 281.555 C 1133.27 278.472 1149.88 294.396 1157.55 308.018 C 1164.1 319.656 1152.7 348.375 1148.67 361.147 L 1128.76 424.05 C 1128.11 426.107 1124.13 438.718 1124.36 439.001 C 1127.57 443.031 1137.54 445.949 1138.33 453.51 C 1139.11 460.946 1132.04 462.594 1137.58 470.652 C 1139.45 473.373 1139.15 475.695 1138.29 478.617 C 1136.5 484.644 1127.11 483.95 1130.19 490.937 C 1131.63 494.225 1132.53 496.021 1131.94 499.547 C 1128.91 504.98 1122.82 508.36 1125.37 513.69 C 1131.1 525.642 1114.92 526.123 1119.73 536.769 C 1122.72 543.387 1114.29 550.454 1108.38 551.461 C 1101.49 552.634 1094.83 552.361 1087.97 552.336 C 1080.44 576.558 1071.35 611.365 1060.52 633.814 C 1050.69 654.181 1015.51 659.71 996.163 663.162 C 970.21 668.923 942.153 672.426 916.658 679.363 C 919.671 714.899 925.335 752.492 930.042 787.999 L 954.216 968.614 L 975.893 1131.91 C 979.099 1156.02 982.653 1190.57 986.979 1213.77 L 954.596 1213.54 C 964.798 1222.26 965.143 1226.84 969.962 1239.59 C 983.203 1234.86 997.491 1229.13 1011.09 1225.96 C 1031.71 1221.16 1046.09 1238.58 1027.04 1255.36 C 1017.43 1256.69 987.944 1257.79 983.24 1261.22 C 983.705 1263.12 983.789 1263.29 986.102 1264.54 C 1001.06 1272.62 1000.39 1264.24 1009.43 1279.17 C 1028.19 1280.5 1023.36 1284.29 1039.07 1290.9 C 1041.62 1291.97 1057.73 1289.42 1061.49 1289.66 C 1082.31 1290.06 1105.12 1299.73 1118.28 1315.82 C 1138.12 1340.07 1138.53 1363.36 1138.11 1392.22 C 1143.17 1399.33 1145.17 1405.16 1143.66 1414.05 C 1142.06 1423.17 1136.81 1431.25 1129.11 1436.42 C 1125.32 1438.97 1119.64 1441.45 1115.16 1441.64 C 1093.91 1442.55 1071.37 1442.08 1050.08 1442.09 L 936.573 1442.14 C 917.914 1442.13 896.172 1441.54 877.705 1442.13 C 873.147 1434.51 869.422 1427.44 865.317 1419.58 L 857 1442.07 C 841.837 1442.13 791.392 1445.75 782.065 1436.98 C 775.367 1430.69 774.29 1420.93 774.383 1412.26 C 774.448 1406.25 774.651 1396.69 778.976 1392.09 C 780.149 1390.85 781.32 1389.61 782.53 1388.4 C 782.094 1385.94 780.201 1378.61 780.506 1376.92 C 783.026 1363 784.447 1347.25 787.43 1333.5 C 791.826 1313.23 792.339 1280.19 804.059 1263.4 C 805.008 1262.05 806.009 1260.74 807.058 1259.47 C 782.835 1235.59 821.265 1205.73 844.844 1231.49 L 845.457 1232.17 C 844.782 1226.08 843.978 1219.73 843.533 1213.64 C 828.397 1213.63 812.63 1213.39 797.557 1214.03 L 780.293 1028.51 C 779.431 1019.29 773.629 969.214 774.346 962.906 L 772.162 962.124 L 742.647 1213.78 C 735.266 1213.97 728.204 1211.72 722.589 1215.36 C 720.846 1218.22 720.74 1217.42 720.857 1220.22 C 726.834 1222.99 732.95 1225.57 738.144 1229.69 C 748.891 1238.23 746.442 1250.36 737.522 1259.17 C 739.417 1261.87 741.145 1264.68 742.698 1267.58 C 749.634 1280.58 753.286 1311.6 755.666 1326.98 C 758.258 1343.73 766.363 1373.73 761.68 1389.16 C 777.935 1413.42 767.434 1448.7 734.201 1442.39 C 728 1441.22 710.004 1442.16 702.682 1442.11 C 699.768 1434.76 696.937 1427.38 694.188 1419.97 C 690.494 1427.3 686.837 1434.66 683.219 1442.03 L 528.022 1442.1 C 503.785 1442.1 479.255 1442.58 455.074 1441.48 C 447.212 1440.57 438.418 1435.03 433.909 1428.66 C 424.907 1415.96 424.43 1403.53 433.975 1391.23 C 433.823 1381.2 433.122 1370.13 434.442 1360.23 C 441.66 1306.1 480.903 1285.82 530.743 1291.21 C 539.152 1283.15 542.005 1279.88 553.893 1279.26 C 564.524 1264.08 571.87 1271.49 581.087 1262.14 L 580.869 1260.75 C 574.468 1257.34 547.53 1256.97 538.741 1256.53 C 517.868 1243.88 527.074 1219.93 551.879 1226.1 C 566.894 1229.83 579.796 1234.83 594.236 1240.14 C 596.729 1227.07 598.205 1223.26 607.384 1213.7 C 589.701 1213.57 572.245 1213.91 554.5 1213.52 C 558.825 1177.56 565.491 1139.06 570.804 1102.94 L 614.675 813.725 L 627.262 730.829 C 628.117 725.075 631.962 701.5 631.603 697.414 C 630.2 696.322 630.041 696.266 628.369 695.844 L 626.995 695.511 C 625.888 692.387 627.369 685.344 627.789 681.637 C 632.224 642.47 638.506 603 641.121 563.729 C 641.521 557.723 635.613 544.663 633.617 538.711 C 626.362 516.372 610.622 490.658 608.865 467.314 C 606.628 437.572 628.565 409.74 657.632 404.032 C 659.658 403.634 670.19 400.881 671.16 400.179 C 690.1 386.489 710.079 384.069 732.746 382.919 C 733.116 370.886 735.073 356.798 736.54 344.825 z"></path>
<path transform="translate(0,0)" fill="rgb(212,209,207)" d="M 911.103 441.403 C 912.175 441.034 913.251 440.675 914.329 440.326 C 913.286 442.917 911.346 448.817 911.103 441.403 z"></path>
<path transform="translate(0,0)" fill="rgb(145,145,145)" d="M 772.162 962.124 L 772.183 960.027 C 772.189 959.495 772.34 957.851 772.981 958.009 C 774.137 958.296 774.291 962.497 774.346 962.906 L 772.162 962.124 z"></path>
<path transform="translate(0,0)" fill="rgb(250,248,246)" d="M 732.392 698.229 C 790.916 698.166 857.054 702.508 914.867 700.036 C 917.401 716.86 919.644 733.725 921.597 750.626 C 907.185 745.381 903.02 736.796 895.798 724.132 L 894.458 723.93 C 893.697 726.434 895.905 731.02 897.16 733.484 C 903.208 745.361 910.136 750.244 922.272 754.387 C 928.937 808.943 936.942 864.208 944.226 918.739 L 976.512 1160.72 C 930.36 1160.42 884.206 1160.48 838.055 1160.88 C 825.404 1041.01 815.878 917.901 804.98 797.696 L 809.022 789.309 C 816.652 773.748 827.918 755.718 844.634 748.55 C 850.615 745.986 854.114 747.025 858.828 745.012 L 858.742 743.629 L 857.146 742.833 C 843.975 742.69 830.397 749.71 820.207 757.599 C 808.506 766.551 799.707 778.758 794.913 792.69 C 786.185 817.789 779.464 879.878 775.825 907.906 C 764.916 991.931 756.026 1076.55 745.688 1160.74 L 603.539 1160.6 C 609.678 1114.55 617.383 1067.24 624.282 1021.18 L 664.55 754.121 C 699.568 755.559 729.221 734.26 732.392 698.229 z"></path>
<path transform="translate(0,0)" fill="rgb(250,248,246)" d="M 1129.45 296.281 C 1144.9 294.846 1159.06 306.51 1156.18 322.675 C 1153.9 335.456 1148.42 350.161 1144.46 362.704 C 1136.06 388.994 1127.83 415.34 1119.78 441.741 C 1077.58 441.234 1107.32 460.862 1087.9 462.227 C 1066.69 463.718 1078.35 480.825 1076.78 482.632 C 1069.03 491.519 1066.53 489.604 1070.25 505.443 C 1067.57 512.098 1059.65 517.371 1066.98 525.181 C 1073.04 531.646 1071.47 530.265 1069.16 538.248 C 1066.25 548.33 1076.11 550.894 1082.82 553.413 C 1083.57 556.562 1079.1 570.821 1077.7 574.392 C 1069 596.446 1063.99 639.276 1038.47 648.827 C 1010.04 659.368 977.542 662.518 947.997 669.284 C 861.878 689.004 842.808 693.517 877.334 600.915 C 893.105 592.45 911.063 581.646 927.812 575.479 C 951.355 566.81 998.15 569.784 1006.97 540.686 C 1026.26 531.493 1016.84 533.802 1026.17 519.445 C 1031.64 511.029 1041.93 513.429 1036.72 494.745 C 1036.57 494.194 1042.59 488.196 1041 480.883 C 1037.14 463.128 1007.97 476.404 997.43 479.815 C 995.461 477.452 992.42 474.1 989.623 472.948 C 972.425 465.865 933.018 485.621 916.112 492.54 C 919.772 483.466 924.579 466.529 927.681 456.685 L 949.226 388.574 C 970.893 320.271 971.599 326.514 1041.25 313.02 C 1070.59 307.136 1099.99 301.556 1129.45 296.281 z"></path>
<path transform="translate(0,0)" fill="rgb(4,2,3)" d="M 1053.48 324.292 C 1066.14 325.629 1060.06 345.534 1046.01 347.919 C 1033.2 350.093 1017.92 352.92 1005.11 355.63 C 990.557 352.494 998.71 334.715 1011.99 332.118 C 1025.8 329.384 1039.63 326.775 1053.48 324.292 z"></path>
<path transform="translate(0,0)" fill="rgb(212,209,207)" d="M 1041.63 333.418 C 1042.76 332.973 1044.03 333.193 1044.94 333.989 C 1045.85 334.784 1046.23 336.02 1045.94 337.19 C 1045.64 338.36 1044.72 339.267 1043.54 339.539 C 1041.9 339.918 1040.25 338.969 1039.75 337.364 C 1039.25 335.758 1040.07 334.038 1041.63 333.418 z"></path>
<path transform="translate(0,0)" fill="rgb(145,145,145)" d="M 973.572 475.187 C 979.248 474.591 989.872 473.013 991.745 480.053 C 987.217 486.335 970.481 486.284 963.957 491.037 L 964.308 492.132 C 974.302 495.662 1024.77 469.189 1033.42 476.327 C 1056.34 495.232 991.614 501.789 987.333 509.021 L 988.429 510.678 C 993.687 510.951 1022.69 498.055 1031.97 497.303 C 1049.31 511.282 993.361 525.493 986.435 529.604 L 986.012 531.281 L 987.554 532.536 C 993.392 531.631 1016.53 521.471 1023.45 518.546 C 1012.24 544.106 987.131 539.813 981.043 549.164 C 984.061 552.436 997.661 542.427 1002.47 542.805 L 1002.53 544.567 C 999.271 549.983 995.541 553.02 989.913 555.68 C 970.012 565.088 947.109 566.124 926.493 572.571 C 916.941 575.558 901.005 584.577 891.498 589.586 L 839.47 617.032 C 817.272 628.632 794.471 640.872 771.955 651.752 C 756.809 659.071 738.426 659.755 722.645 653.297 C 712.384 649.008 703.534 641.923 697.105 632.847 C 688.077 620.307 668.824 564.836 661.258 546.468 C 684.098 519.214 714.856 512.275 748.343 521.505 C 753.559 531.265 758.531 541.155 763.254 551.164 C 818.693 530.035 875.688 512.165 930.973 490.592 C 945.811 484.803 957.677 478.585 973.572 475.187 z"></path>
<path transform="translate(0,0)" fill="rgb(252,190,26)" d="M 725.475 386.445 L 726.795 386.707 C 728.913 390.124 729.208 392.507 730.899 395.431 C 737.951 407.627 746.327 415.284 759.978 419.152 C 772.876 422.831 786.712 421.176 798.379 414.558 C 809.681 408.03 816.221 399.36 819.513 386.905 C 832.681 386.78 848.578 386.009 861.082 389.673 C 878.39 394.866 892.914 406.746 901.435 422.682 C 916.273 450.813 904.078 471.609 895.343 500.048 L 882.887 504.274 C 882.193 495.711 882.555 463.069 879.139 458.042 L 877.945 458.41 C 877.02 463.586 878.075 475.511 878.396 481.248 C 878.94 489.046 879.137 497.745 879.475 505.629 C 842.638 519.843 802.53 533.359 765.163 546.62 L 759.915 536.507 C 763.431 516.22 730.768 456.517 722.428 434.753 C 715.518 416.72 693.794 405.391 675.052 402.226 C 692.054 391.02 705.402 388.082 725.475 386.445 z"></path>
<path transform="translate(0,0)" fill="rgb(250,248,246)" d="M 783.49 1391.99 C 848.747 1390.68 918.808 1391.98 984.438 1391.98 L 1074.89 1391.91 C 1092.21 1391.89 1109.41 1391.85 1126.76 1392.14 C 1146 1392.47 1142.23 1417.69 1133.56 1427.94 C 1127.77 1434.78 1120.14 1438.24 1111.25 1438.94 L 879.599 1438.84 C 874.815 1429.93 869.909 1421.1 864.884 1412.33 C 861.406 1418.88 857.293 1431.55 854.652 1439.03 C 836.187 1438.79 817.303 1438.95 798.816 1439.14 C 773.944 1439.39 773.042 1406.09 783.49 1391.99 z"></path>
<path transform="translate(0,0)" fill="rgb(250,248,246)" d="M 636.049 696.401 L 670.221 696.91 C 667.568 707.308 665.18 727.154 663.487 738.433 L 651.857 816.005 L 614.849 1061.57 L 605.201 1127.25 C 604.205 1134.13 601.63 1154.71 599.75 1160.52 L 565.564 1160.56 L 611.594 856.005 L 626.986 753.659 C 629.553 736.625 632.476 712.901 636.049 696.401 z"></path>
<path transform="translate(0,0)" fill="rgb(250,248,246)" d="M 438.742 1392.03 C 439.623 1391.97 440.648 1391.89 441.527 1391.89 C 505.492 1391.99 569.545 1391.98 633.503 1391.97 L 711.181 1391.91 C 716.965 1391.9 756.098 1390.96 759.714 1393.45 C 767.281 1398.66 766.942 1427.25 758.866 1434 C 750.594 1440.93 739.265 1439.12 728.75 1438.92 L 705.079 1438.92 L 694.605 1411.51 C 690.538 1420.4 685.384 1430.02 680.894 1438.81 L 525.612 1438.93 C 504.605 1438.95 476.079 1440.01 455.386 1438.23 C 437.023 1436.64 419.989 1408.94 438.742 1392.03 z"></path>
<path transform="translate(0,0)" fill="rgb(250,248,246)" d="M 1049.66 1293.38 C 1099.25 1289.53 1132.53 1321.07 1134.89 1370.24 C 1135.19 1376.44 1134.96 1382.81 1134.85 1389.02 C 1106.97 1387.6 1070.97 1388.68 1042.5 1388.72 L 954.833 1388.6 C 952.712 1336.14 1001.3 1298.77 1049.66 1293.38 z"></path>
<path transform="translate(0,0)" fill="rgb(250,248,246)" d="M 510.769 1293.44 C 517.067 1293.1 525.846 1293.8 531.981 1295.31 C 577.354 1306.46 615.8 1339.45 616.247 1388.56 L 541.5 1388.74 L 437.683 1388.61 C 436.852 1374.44 436.036 1362.91 439.74 1348.94 C 449.298 1312.9 475.059 1295.77 510.769 1293.44 z"></path>
<path transform="translate(0,0)" fill="rgb(252,190,26)" d="M 644.299 570.613 C 645.401 571.846 646.533 573.052 647.693 574.231 C 656.143 582.782 660.574 583.323 671.964 583.33 C 683.458 614.152 691.032 646.542 726.027 658.212 C 736.729 661.794 748.213 662.349 759.211 659.815 C 774.774 656.258 836.5 622.252 855.076 612.805 C 851.477 621.869 847.581 632.336 846.289 641.983 C 843.487 662.909 862.419 683.626 882.748 685.484 C 890.495 684.781 905.72 681.379 913.882 679.795 L 914.316 691.414 C 881.595 692.733 845.577 691.915 812.52 691.946 L 629.808 691.877 C 635.423 652.422 640.041 610.215 644.299 570.613 z"></path>
<path transform="translate(0,0)" fill="rgb(252,190,26)" d="M 669.555 405.317 C 675.789 404.81 684.362 406.905 690.123 409.22 C 716.16 419.684 724.05 445.614 734.108 469.202 L 756.379 521.42 C 727.152 509.876 701.758 511.29 675.027 528.813 C 661.656 538.274 653.692 549.841 646.273 564.108 C 637.633 534.819 619.778 502.584 613.087 472.777 C 610.129 459.602 615.048 439.927 623.509 429.253 C 636.223 413.214 650.15 408.179 669.555 405.317 z"></path>
<path transform="translate(0,0)" fill="rgb(250,248,246)" d="M 810.319 1260.7 C 821.822 1263.32 837.551 1268.07 848.936 1268.93 C 862.188 1269.94 880.78 1267.22 893.813 1269.4 C 901.515 1295.26 909.931 1278.07 918.654 1280.76 C 913.924 1290.93 918.612 1297.08 929.498 1295.64 C 933.793 1295.08 932.26 1304.03 937.277 1308.15 C 943.922 1309.32 953.782 1304.2 960.278 1301.45 L 960.889 1303.92 C 954.588 1308.46 951.585 1315.03 956.909 1321.83 C 965.301 1327.13 978.404 1316.68 986.601 1312.59 L 988.622 1314.34 C 963.116 1335.22 951.4 1355.47 951.289 1388.58 L 886.998 1388.57 C 885.317 1350.55 864.059 1322.28 827.439 1310.4 C 816.043 1306.7 806.766 1306.84 795.022 1306.74 C 798.335 1286.09 797.917 1277.66 810.319 1260.7 z"></path>
<path transform="translate(0,0)" fill="rgb(250,248,246)" d="M 801.38 804.705 C 803.415 811.357 804.858 833.065 805.541 840.902 L 811.287 906.159 L 834.435 1160.84 L 808.932 1160.73 L 795.712 1160.82 L 781.954 1011.48 C 779.734 988.514 776.397 963.008 775.593 940.109 C 775.34 932.902 778.564 913.516 779.396 905.445 C 783.236 868.156 789.209 840.287 801.38 804.705 z"></path>
<path transform="translate(0,0)" fill="rgb(250,248,246)" d="M 595.741 1297.45 C 605.694 1301.8 625.256 1313.81 633.643 1304.45 C 635.006 1299.79 635.037 1297.66 632.539 1293.46 C 638.972 1295.28 646.665 1299.57 649.92 1289.52 C 650.998 1286.19 649.07 1282.26 647.347 1279.39 C 655.23 1278.99 667.203 1294.78 669.374 1269.68 C 674.828 1269.45 690.801 1270.61 693.89 1270.08 C 707.026 1267.84 720.663 1263.15 734.322 1260.65 C 746.57 1278.9 745.588 1286.52 749.11 1307.71 C 701.856 1313.67 683.578 1343.59 679.833 1388.68 L 619.796 1388.72 C 618.317 1361.95 610.113 1339.55 589.521 1321.14 C 588.82 1320.52 588.11 1319.9 587.39 1319.29 L 589.337 1317.61 C 597.767 1322.71 613.409 1328.27 609.302 1309.63 C 608.209 1304.67 599.215 1301.46 594.522 1299.57 L 595.741 1297.45 z"></path>
<path transform="translate(0,0)" fill="rgb(250,248,246)" d="M 796.094 1164.03 L 976.712 1163.89 L 983.1 1210.38 C 922.565 1209.84 860.501 1211.36 800.357 1210.23 C 799.107 1194.82 797.686 1179.42 796.094 1164.03 z"></path>
<path transform="translate(0,0)" fill="rgb(250,248,246)" d="M 564.809 1163.87 C 623.979 1164.85 685.995 1163.97 745.355 1163.98 C 744.387 1171.26 741.162 1206.68 738.75 1210.5 C 679.292 1211.09 617.372 1210.38 557.848 1210.3 C 560.274 1194.84 562.595 1179.36 564.809 1163.87 z"></path>
<path transform="translate(0,0)" fill="rgb(145,145,145)" d="M 735.024 290.065 C 743.793 269.007 749.395 298.228 762.957 268.405 C 765.448 267.769 767.768 268.293 770.257 268.72 C 787.177 271.622 785.05 262.427 793.297 256.244 C 798.939 255.614 804.475 260.402 801.227 265.399 C 798.398 266.044 795.862 266.511 793.001 266.998 L 791.798 268.781 C 792.535 271.861 791.693 270.83 793.824 272.374 C 803.988 268.205 805.464 269.953 809.582 279.404 C 810.823 281.972 811.932 284.601 812.905 287.282 C 817.024 297.225 821.728 307.9 822.04 318.794 C 822.327 328.091 818.847 337.111 812.39 343.807 C 791.351 366.051 759.179 359.51 738.918 339.636 C 724.801 347.503 701.544 341.916 708.384 321.64 C 712.474 308.594 725.602 311.625 735.192 307.238 C 742.272 303.999 737.505 294.535 735.024 290.065 z"></path>
<path transform="translate(0,0)" fill="rgb(4,2,3)" d="M 810.543 288.308 C 798.39 295.237 795.216 270.746 808.023 279.986 L 809.582 279.404 C 810.823 281.972 811.932 284.601 812.905 287.282 C 812.153 287.42 811.254 287.951 810.543 288.308 z"></path>
<path transform="translate(0,0)" fill="rgb(145,145,145)" d="M 809.582 279.404 C 810.823 281.972 811.932 284.601 812.905 287.282 C 812.153 287.42 811.254 287.951 810.543 288.308 C 809.377 284.941 808.885 283.472 808.023 279.986 L 809.582 279.404 z"></path>
<path transform="translate(0,0)" fill="rgb(4,2,3)" d="M 789.707 284.464 C 799.648 286.22 797.289 295.667 802.504 295.793 C 810.281 295.979 803.407 307.612 801.994 311.084 C 797.1 308.704 800.491 304.954 802.07 301.127 C 797.934 296.497 792.638 289.905 789.707 284.464 z"></path>
<path transform="translate(0,0)" fill="rgb(4,2,3)" d="M 779.652 285.327 C 788.406 287.09 788.061 291.275 785.023 298.594 C 776.985 296.094 776.427 292.506 779.652 285.327 z"></path>
<path transform="translate(0,0)" fill="rgb(4,2,3)" d="M 787.509 312.661 C 790.997 314.373 791.677 316.336 794.957 318.125 C 800.19 320.981 803.47 313.521 806.36 319.453 C 799.965 322.534 786.158 322.569 787.333 314.097 L 787.509 312.661 z"></path>
<path transform="translate(0,0)" fill="rgb(4,2,3)" d="M 775.183 271.794 C 783.001 274.714 767.786 278.319 767.59 281.099 C 767.586 281.154 766.028 282.973 765.832 283.203 C 759.309 279.511 772.697 272.986 775.183 271.794 z"></path>
<path transform="translate(0,0)" fill="rgb(4,2,3)" d="M 728.012 318.782 C 736.224 322.394 725.356 323.389 720.299 326.857 C 718.237 328.538 714.304 323.225 728.012 318.782 z"></path>
<path transform="translate(0,0)" fill="rgb(250,248,246)" d="M 794.428 1310.24 C 843.562 1310.02 881.637 1336.8 883.458 1388.46 L 872.5 1388.61 C 846.62 1388.55 820.764 1388.7 794.903 1389.25 C 776.963 1389.62 786.261 1360.41 788.129 1349.56 C 790.299 1336.46 792.399 1323.36 794.428 1310.24 z"></path>
<path transform="translate(0,0)" fill="rgb(250,248,246)" d="M 745.626 1311.19 L 748.782 1311.46 C 751.536 1314.43 758.027 1368.19 760.741 1375.85 C 767.424 1394.7 716.05 1388.75 701.5 1388.76 L 683.255 1388.75 C 686.14 1347.71 703.191 1318.7 745.626 1311.19 z"></path>
<path transform="translate(0,0)" fill="rgb(250,248,246)" d="M 1113.51 285.247 C 1126.82 283.169 1131.38 285.884 1142.04 292.919 C 1122.04 292.029 1088.91 300.289 1068.54 304.424 C 1041.02 310.012 1006.49 313.835 980.986 324.057 C 959.075 332.84 949.895 374.679 943.275 395.713 L 915.057 484.635 L 912.09 494.192 L 899.595 498.388 L 929.213 404.021 C 935.963 382.446 942.877 360.917 950.254 339.525 C 960.951 308.508 993.56 308.363 1022.06 302.768 L 1113.51 285.247 z"></path>
<path transform="translate(0,0)" fill="rgb(145,145,145)" d="M 739.621 349.529 C 758.619 372.653 781.164 381.04 809.915 370.182 L 816.179 388.26 C 811.993 397.923 810.185 400.657 802.601 407.895 C 779.398 425.638 733.789 416.302 732.133 386.846 C 734.071 386.175 734.103 386.193 735.79 385.047 C 736.861 372.661 737.931 361.867 739.621 349.529 z"></path>
<path transform="translate(0,0)" fill="rgb(250,248,246)" d="M 930.433 1214.38 C 956.627 1213.81 958.085 1216.85 966.856 1240.75 C 949.6 1246.85 932.685 1253.08 915.233 1258.98 C 903.875 1263.14 898.193 1266.11 885.93 1265.86 C 886.146 1226.18 894.698 1223.98 930.433 1214.38 z"></path>
<path transform="translate(0,0)" fill="rgb(250,248,246)" d="M 673.382 697.003 C 692.11 697.178 710.939 697.834 729.714 698.135 C 726.148 716.245 721.079 726.739 706.639 738.813 C 692.887 748.887 681.712 751.074 665.113 750.662 C 668.052 732.756 670.037 714.849 673.382 697.003 z"></path>
<path transform="translate(0,0)" fill="rgb(250,248,246)" d="M 613.825 1215.15 L 617.501 1215.05 C 632.645 1214.8 651.141 1215.95 662.676 1227.33 C 673.286 1237.79 672.124 1252.99 672.357 1266.75 L 659.288 1261.71 C 641.577 1255.32 616.196 1246.66 598.278 1241.16 C 599.832 1227.75 601.527 1222.02 613.825 1215.15 z"></path>
<path transform="translate(0,0)" fill="rgb(250,248,246)" d="M 817.999 1225.07 C 834.174 1223.6 844.689 1230.41 847.899 1247 L 851.389 1265.71 C 845.988 1265.24 843.558 1265.19 838.299 1263.99 C 825.017 1260.56 796.169 1258.84 803.54 1238.61 C 806.199 1231.32 811.266 1228.12 817.999 1225.07 z"></path>
<path transform="translate(0,0)" fill="rgb(250,248,246)" d="M 539.907 1227.99 C 553.918 1228.05 596.125 1244.31 610.941 1249.89 C 607.931 1252.25 604.088 1254.59 600.84 1256.69 C 583.498 1254.16 564.243 1256.06 546.852 1253.81 C 529.593 1251.58 523.93 1238.47 539.907 1227.99 z"></path>
<path transform="translate(0,0)" fill="rgb(250,248,246)" d="M 714.026 1225.15 C 721.653 1224.56 724.721 1224.16 731.794 1228.3 C 743.675 1235.24 745.192 1255.45 729.612 1258.27 C 726.268 1258.87 722.692 1259.67 719.252 1260.3 C 711.416 1262.22 703.627 1264.33 695.891 1266.63 C 695.559 1248.93 695.68 1233.64 714.026 1225.15 z"></path>
<path transform="translate(0,0)" fill="rgb(250,248,246)" d="M 1017.49 1228.12 C 1036.2 1227.07 1036.8 1250.79 1021.53 1252.77 C 1006.14 1254.75 990.227 1255.92 974.806 1254.89 C 963.349 1256.52 965.157 1257.34 956.452 1248.7 C 971.704 1241.78 1001.27 1231.77 1017.49 1228.12 z"></path>
<path transform="translate(0,0)" fill="rgb(145,145,145)" d="M 848.576 1230.89 C 862.304 1231 874.885 1230.85 888.57 1230.53 C 882.727 1243.61 882.888 1248.83 882.715 1263.07 C 882.487 1266.13 881.248 1265.53 878.524 1265.52 C 870.487 1265.46 862.464 1265.68 854.426 1265.75 C 852.926 1253.74 849.855 1242.37 848.576 1230.89 z"></path>
<path transform="translate(0,0)" fill="rgb(145,145,145)" d="M 1085.37 465.236 C 1094.32 465.165 1103.49 464.979 1112.42 465.154 C 1118.21 465.267 1132.26 463.316 1134.3 470.426 C 1136.59 478.422 1133.37 481.072 1126.63 483.786 C 1113.6 483.85 1096.43 484.412 1083.71 483.472 C 1077.3 482.997 1075.29 471.004 1085.37 465.236 z"></path>
<path transform="translate(0,0)" fill="rgb(145,145,145)" d="M 1079.32 487.296 C 1092.78 487.438 1109.96 487.027 1123.54 488.113 C 1124.98 488.452 1126.63 490.172 1127.16 491.439 C 1129.79 497.768 1127.91 502.596 1122.12 505.389 C 1113.75 505.167 1084.17 505.559 1076.15 504.692 C 1072.05 504.25 1068.07 491.699 1079.32 487.296 z"></path>
<path transform="translate(0,0)" fill="rgb(145,145,145)" d="M 1072.82 509.056 C 1084.2 508.887 1142.37 501.67 1117.71 526.948 C 1110.81 527.669 1050.17 532.564 1071.78 510.18 L 1072.82 509.056 z"></path>
<path transform="translate(0,0)" fill="rgb(145,145,145)" d="M 666.301 1226.01 C 678.813 1226.11 691.325 1226.49 703.831 1226.33 C 694.424 1238.12 694.144 1241.34 692.193 1256.17 C 692.169 1260 692.326 1263.26 692.447 1267.05 C 686.739 1266.84 681.685 1266.68 675.942 1266.64 C 675.88 1253.08 676.789 1240.31 668.296 1228.74 L 666.301 1226.01 z"></path>
<path transform="translate(0,0)" fill="rgb(250,248,246)" d="M 564.915 1271.8 C 582.675 1273.18 613.477 1288.28 630.161 1295.85 C 634.475 1297.81 628.175 1304.42 626.566 1305.85 C 621.562 1304.78 618.765 1303.69 614.088 1301.49 C 596.754 1293.34 578.197 1287.64 560.912 1279.44 C 557.883 1278.01 564.043 1272.66 564.915 1271.8 z"></path>
<path transform="translate(0,0)" fill="rgb(250,248,246)" d="M 1016.74 1284 C 1016.86 1284 1020.99 1284.03 1020.49 1284.19 C 1021.83 1283.78 1029.07 1288.48 1027.09 1289.63 C 1007.81 1300.78 986.025 1307.63 966.54 1319.04 C 957.959 1323.25 956.346 1313.84 957.764 1312.01 C 965.399 1302.15 1007.15 1287.53 1016.74 1284 z"></path>
<path transform="translate(0,0)" fill="rgb(250,248,246)" d="M 994.159 1272.01 C 996.827 1271.88 1003.31 1271.8 1003.84 1278.07 C 1003.93 1279.18 999.484 1280.86 998.207 1281.4 C 980.265 1289.04 962.314 1296.68 944.3 1304.17 C 942.554 1304.76 940.966 1305.37 939.126 1304.7 C 937.367 1304.05 935.978 1302.68 935.324 1300.92 C 932.814 1294.36 942.255 1291.22 946.827 1289.53 C 962.402 1283.78 978.218 1276.57 994.159 1272.01 z"></path>
<path transform="translate(0,0)" fill="rgb(250,248,246)" d="M 545.877 1283.62 C 556.258 1284.04 596.487 1303.88 606.699 1310.18 C 610.582 1312.58 605.229 1318.49 602.607 1320.27 C 597.072 1318 540.303 1291.23 539.182 1289.97 C 538.895 1289.64 538.878 1289.55 538.983 1289.12 C 539.484 1287.03 544.234 1284.72 545.877 1283.62 z"></path>
<path transform="translate(0,0)" fill="rgb(250,248,246)" d="M 585.921 1259.1 C 602.99 1258.6 626.505 1272.36 641.998 1279.83 C 648.304 1282.87 647.618 1287.87 644.176 1292.94 C 642.734 1292.82 639.701 1292.66 638.528 1291.95 C 622.1 1282.09 604.827 1274.96 586.976 1268.15 C 581.135 1265.93 583.402 1263.83 585.921 1259.1 z"></path>
<path transform="translate(0,0)" fill="rgb(250,248,246)" d="M 969.546 1259.17 C 971.88 1259 978.277 1258.03 979.785 1260.09 C 984.623 1266.66 982.973 1265.67 976.681 1268.6 C 960.918 1275.93 946.17 1281.53 931.385 1290.94 C 927.537 1292.86 923.164 1294.19 920.658 1289.6 C 917.694 1284.18 923.646 1280.58 927.759 1278.65 C 941.667 1272.12 955.246 1264.82 969.546 1259.17 z"></path>
<path transform="translate(0,0)" fill="rgb(250,248,246)" d="M 950.027 1251.07 C 950.779 1251.17 958.844 1254.78 957.299 1256.1 C 945.123 1266.47 921.914 1275.03 907.095 1279.99 C 897.124 1278.91 897.502 1270.66 899.728 1268.83 C 903.964 1265.35 945.142 1252.48 950.027 1251.07 z"></path>
<path transform="translate(0,0)" fill="rgb(145,145,145)" d="M 1076.85 531.101 C 1082.61 531.021 1112.31 529.515 1115.3 532.767 C 1119.83 537.687 1115.5 543.546 1110.4 547.275 C 1104.07 548.727 1083.16 550.325 1076.94 547.228 C 1070.59 544.063 1070.8 537.465 1075.82 532.214 L 1076.85 531.101 z"></path>
<path transform="translate(0,0)" fill="rgb(250,248,246)" d="M 617.668 1252.06 C 628.873 1253.88 641.686 1260.48 652.993 1263.15 C 664.434 1265.86 671.696 1272.69 659.791 1280.93 C 652.43 1276.89 612.856 1259.9 610.394 1256.47 C 610.239 1254.22 615.953 1252.73 617.668 1252.06 z"></path>
<path transform="translate(0,0)" fill="rgb(145,145,145)" d="M 1105.51 445.193 C 1115.56 444.902 1137.39 440.992 1133.94 457.993 C 1133.21 461.599 1131.74 462.588 1128.25 461.753 C 1123.21 461.697 1100.75 463.419 1098.95 459.512 C 1095.72 452.476 1099.39 448.476 1105.51 445.193 z"></path>
<path transform="translate(0,0)" fill="rgb(250,248,246)" d="M 870.891 604.119 C 873.177 607.162 858.065 645.448 857.244 652.51 C 857.153 653.289 855.972 665.334 856.413 664.981 C 855.721 664.958 855.637 664.779 854.846 664.37 L 853.304 661.492 C 844.602 644.96 853.142 628.82 858.862 610.633 C 863.066 608.164 866.639 606.365 870.891 604.119 z"></path>
<path transform="translate(0,0)" fill="rgb(24,18,21)" d="M 713.323 236.785 C 719.122 236.998 723.753 236.188 726.564 242.585 C 726.751 243.009 727.955 242.462 728.97 242.942 L 729.048 243.452 C 728.179 245.096 721.114 249.902 730.605 253.549 C 732.837 254.407 735.093 249.32 736.833 250.113 C 738.204 252.81 732.737 255.015 732.456 255.781 C 739.679 268.727 748.416 252.301 747.429 252.77 L 747.802 252.969 C 748.251 254.115 748.036 256.483 747.427 257.452 C 742.7 264.975 736.282 261.081 734.465 261.538 C 733.752 263.466 733.419 268.368 733.162 268.66 C 728.396 268.63 731.709 265.307 732.43 261.091 C 729.923 256.722 727.167 251.748 721.019 254.997 C 712.397 259.554 723.334 267.867 722.709 269.168 C 716.841 270.696 719.961 265.494 716.756 262.38 C 716.068 261.711 713.693 264.066 713.081 262.525 C 713.626 261.097 715.682 260.609 714.847 259.007 C 714.563 259.008 707.258 260.034 709.078 257.088 C 710.668 256.878 714.463 258.556 714.938 258.374 C 716.793 257.66 716.855 249.955 714.019 249.281 C 707.674 247.771 707.647 250.323 705.562 254.079 L 705.224 254.019 C 701.139 250.492 705.963 243.21 708.981 243.984 C 709.101 244.015 711.454 238.971 713.323 236.785 z"></path>
<path transform="translate(0,0)" fill="rgb(4,2,3)" d="M 715.413 237.663 C 717.314 238.118 719.203 238.353 722.009 239.656 C 727.173 242.055 722.22 247.03 724.649 250.909 C 724.933 251.363 722.022 253.257 721.053 254.022 C 720.874 254.04 718.887 254.266 718.88 254.233 C 716.509 244.008 706.078 244.794 715.413 237.663 z"></path>
<path transform="translate(0,0)" fill="rgb(24,18,21)" d="M 736.329 224.011 C 742.012 230.441 738.096 230.447 743.58 229.674 L 744.099 230.052 C 743.831 231.209 737.808 237.06 741.791 241.43 C 748.418 248.7 753.648 235.947 755.373 234.205 C 758.527 231.019 759.449 233.451 758.716 228.112 C 756.96 228.178 754.726 228.344 753.985 226.441 C 754.8 225.398 758.802 226.862 760.562 223.327 C 761.471 221.501 763.123 218.582 765.768 219.327 L 765.861 219.505 C 764.843 222.252 760.089 226.533 760.762 229.975 C 761.034 231.371 762.997 232.452 764.42 232.059 C 769.025 229.978 769.51 224.435 774.926 228.076 C 771.8 230.199 768.548 230.412 766.375 233.626 C 765.88 234.357 766.932 235.701 765.979 236.849 C 764.925 236.944 760.02 229.93 755.26 238.024 C 751.582 244.277 757.059 245.185 759.866 248.473 C 758.424 252.461 752.237 242.503 751.097 243.081 C 739.643 248.896 741.061 242.007 738.458 236.51 C 737.413 237.046 737.026 237.45 735.958 236.905 L 735.963 236.53 L 735.972 236.868 C 737.002 234.781 739.194 233.292 738.711 230.538 C 738.384 228.678 737.287 228.457 735.981 227.046 C 734.605 225.561 727.749 228.554 729.48 225.555 C 730.071 224.531 734.881 224.2 736.329 224.011 z"></path>
<path transform="translate(0,0)" fill="rgb(188,185,183)" d="M 960.278 1301.45 C 966.066 1298.61 1006.78 1280.01 1009.18 1282.59 C 1009.38 1282.13 964.929 1302.17 960.889 1303.92 L 960.278 1301.45 z"></path>
<path transform="translate(0,0)" fill="rgb(24,18,21)" d="M 787.49 225.769 C 791.614 225.783 793.296 225.425 796.454 228.59 C 802.03 234.178 805.911 233.986 796.426 238.799 C 794.002 238.905 790.211 239.406 788.155 237.73 L 788.132 237.487 C 790.345 236.142 793.306 238.097 794.134 235.149 C 794.394 234.224 794.023 230.707 792.905 230.359 C 790.748 229.687 789.286 227.37 787.49 225.769 z"></path>
<path transform="translate(0,0)" fill="rgb(24,18,21)" d="M 711.985 263.734 C 712.421 265.536 712.549 265.608 711.769 267.231 L 711.865 268.541 L 711.768 268.507 C 712.113 268.887 712.599 269.083 712.785 269.573 C 712.744 269.689 702.438 269.982 702.25 277.987 C 702.095 284.629 707.166 282.196 710.79 283.443 L 711.046 283.969 L 711.09 283.651 L 710.52 284.259 C 708.435 284.83 704.966 284.507 702.701 284.5 C 699.267 278.791 701.719 277.329 695.945 279.453 C 695.273 279.124 694.79 278.853 694.315 278.237 L 694.395 277.782 C 696.002 276.38 698.116 277.699 700.559 275.611 C 704.644 272.119 702.959 269.872 704.255 267.061 C 707.299 266.089 704.172 273.701 711.985 263.734 z"></path>
<path transform="translate(0,0)" fill="rgb(145,145,145)" d="M 594.522 1299.57 C 586.716 1296.39 579.165 1292.57 571.417 1289.26 C 570.779 1288.99 563.927 1286.17 564.19 1285.32 C 567.457 1285.08 591.369 1295.6 595.741 1297.45 L 594.522 1299.57 z"></path>
<path transform="translate(0,0)" fill="rgb(24,18,21)" d="M 781.137 234.062 C 781.664 233.056 782.965 229.678 783.426 229.449 C 785.363 228.487 785.772 235.604 785.526 236.281 C 784.137 236.302 784.333 235.405 783.091 234.908 C 782.479 237.009 784.033 242.318 781.016 245.031 C 779.294 246.578 774.897 246.821 773.767 244.497 L 773.978 244.043 C 779.268 242.547 780.249 247.928 781.298 236.113 C 781.217 235.416 781.1 234.755 781.137 234.062 z"></path>
<path transform="translate(0,0)" fill="rgb(145,145,145)" d="M 598.343 1277.06 C 605.443 1278.18 617.754 1283.61 623.701 1287.5 C 618.678 1287.3 602.929 1280.65 598.343 1277.06 z"></path>
<path transform="translate(0,0)" fill="rgb(188,185,183)" d="M 982.13 1269.67 C 993.649 1269.87 972.976 1275.62 971.237 1276.18 C 970.375 1276.5 969.906 1276.83 969.044 1276.55 L 969.021 1276.51 C 969.458 1275.94 980.481 1270.58 982.13 1269.67 z"></path>
<path transform="translate(0,0)" fill="rgb(24,18,21)" d="M 774.926 228.076 C 781.351 233.287 777.503 236.734 772.277 239.997 C 772.631 235.453 774.13 236.933 776.337 233.363 C 776.082 230.554 774.107 232.365 774.926 228.076 z"></path>
<path transform="translate(0,0)" fill="rgb(145,145,145)" d="M 577.364 1269.22 C 583.082 1270.1 586.982 1271.2 591.465 1274.96 C 586.844 1274.4 580.785 1272.56 577.364 1269.22 z"></path>
<path transform="translate(0,0)" fill="rgb(24,18,21)" d="M 724.412 294.852 C 724.948 294.924 724.963 294.863 725.344 295.131 C 726.061 296.815 722.024 298.881 720.855 299.271 L 718.46 300.05 C 714.997 295.365 719.534 298.464 724.412 294.852 z"></path>
<path transform="translate(0,0)" fill="rgb(24,18,21)" d="M 749.274 215.189 C 750.37 215.362 751.891 215.245 752.667 216.186 C 752.793 217.164 749.504 218.281 748.506 222.486 C 748.579 222.886 748.652 223.286 748.725 223.686 C 745.103 223.008 748.483 216.636 749.274 215.189 z"></path>
<path transform="translate(0,0)" fill="rgb(24,18,21)" d="M 777.567 213.586 C 778.216 213.629 786.819 213.948 784.321 216.673 C 783.56 216.566 783.098 215.763 782.648 215.244 C 778.129 216.364 772.569 220.499 777.146 214.23 L 777.567 213.586 z"></path>
<path transform="translate(0,0)" fill="rgb(24,18,21)" d="M 706.765 292.259 C 710.15 294.912 711.992 295.607 710.39 299.845 C 710.244 299.961 710.103 300.081 709.954 300.193 C 709.785 300.32 709.519 300.6 709.257 300.568 C 709.32 300.668 708.249 295.003 706.765 292.259 z"></path>
<path transform="translate(0,0)" fill="rgb(188,185,183)" d="M 587.39 1319.29 C 586.454 1318.74 581.287 1315.45 581.567 1314.41 C 582.896 1313.77 588.072 1316.9 589.337 1317.61 L 587.39 1319.29 z"></path>
<path transform="translate(0,0)" fill="rgb(24,18,21)" d="M 715.89 272.417 C 718.994 274.942 718.794 275.819 717.499 279.53 C 716.809 279.704 716.685 279.928 716.065 279.654 C 715.92 278.942 716.161 274.409 715.89 272.417 z"></path>
<path transform="translate(0,0)" fill="rgb(212,209,207)" d="M 986.601 1312.59 C 987.809 1311.96 991.69 1309.66 993.055 1310.09 C 993.177 1310.13 993.279 1310.22 993.339 1310.33 C 993.853 1311.31 989.294 1313.92 988.622 1314.34 L 986.601 1312.59 z"></path>
<path transform="translate(0,0)" fill="rgb(24,18,21)" d="M 1925.25 404.43 C 1971.06 389.308 2023.47 421.575 2029.18 469.629 C 2030.44 480.164 2029.59 490.198 2027.4 500.539 C 2040.77 503.879 2044.37 505.601 2049.1 519.385 C 2065.17 521.499 2069.95 522.525 2076.32 538.118 C 2091.93 539.711 2098.68 541.905 2103.54 558.074 C 2110.3 559.085 2118.59 560.051 2123.31 565.768 C 2125.2 568.069 2126.89 575.314 2128.56 576.42 C 2144.88 587.236 2148.64 576.157 2154.54 600.438 C 2180.23 604.406 2170.08 609.53 2178.23 620.231 C 2187.75 632.725 2198.44 620.724 2202.68 647.227 C 2218.29 651.617 2223.6 654.914 2225.49 672.225 C 2242.5 677.236 2245.25 681.758 2247.2 699.107 C 2263.42 703.838 2267.07 709.27 2267.03 726.218 C 2283.52 731.887 2286.83 737.14 2287.25 754.583 C 2303.65 760.756 2306 766.042 2306.09 783.189 C 2322.45 791.236 2325.08 795.253 2324.83 813.672 C 2342.07 822.136 2343.82 827.78 2343.06 846.459 C 2359.62 853.966 2362.14 859.818 2361.47 877.678 C 2367.64 881.249 2372.64 884.012 2374.92 891.477 C 2376.31 895.9 2375.73 900.708 2373.34 904.681 C 2368.96 911.939 2359.07 915.405 2351.74 910.459 C 2343.61 904.978 2344.12 897.271 2343.46 888.862 C 2327.7 880.154 2325.85 873.449 2325.88 856.25 C 2309.64 847.434 2307.54 841.929 2307.79 823.991 C 2291.89 817.293 2289.98 810.282 2289.17 793.717 C 2273.48 787.607 2270.76 781.303 2270.72 764.953 C 2245.26 757.249 2258.61 749.153 2250.47 738.93 C 2240.85 726.838 2232.63 737.347 2231.42 711.031 C 2204.82 705.117 2217.75 693.704 2208.98 686.484 C 2195.21 675.14 2193.41 686.691 2187.25 661.198 C 2172.14 657.811 2167.81 653.689 2164.81 638.268 C 2148.13 635.008 2144.2 630.892 2140.02 614.585 C 2124.74 612.283 2120.34 609.552 2115.25 594.334 C 2099.42 591.878 2094.83 589.602 2089.44 573.804 C 2085.12 573.257 2073.93 572.062 2071.61 568.179 C 2068.31 562.658 2062.83 553.781 2055.49 553.383 C 2043.94 552.756 2041.39 546.546 2036.15 536.117 C 2025.55 535.789 2023.95 535.245 2014.81 530.115 L 2020.3 540.466 C 2033.48 542.854 2042.68 545.31 2046.43 560.158 C 2052.38 561.712 2063.23 564.006 2065.96 569.85 C 2068.82 575.969 2070.06 582.202 2078.15 583.608 C 2091.78 585.981 2092.98 589.897 2096.94 603.416 C 2127.5 610.692 2113.92 617.564 2121.67 625.188 C 2134.65 637.952 2142.36 623.355 2148.82 653.491 C 2168.73 659.119 2172.59 665.481 2174.97 685.199 C 2195.79 693.311 2197.92 697.999 2199.65 719.655 C 2219.58 728.214 2222 733.308 2223.11 754.321 C 2242.23 764.437 2245.36 769.356 2245.01 790.923 C 2263.44 800.11 2268.16 807.159 2266.45 828.201 C 2286.76 838.971 2287.53 845.218 2287.79 867.217 C 2305.46 876.557 2309.5 884.8 2307.07 904.474 C 2314.33 908.92 2320.65 912.373 2322.86 921.529 C 2323.96 926.069 2323.18 930.864 2320.69 934.816 C 2318.13 938.81 2314.05 941.586 2309.4 942.505 C 2304.85 943.462 2300.1 942.465 2296.32 939.757 C 2287.92 933.677 2288.23 924.458 2287.67 915.294 C 2270.08 904.875 2267.48 898.809 2268.47 878.798 C 2249.82 865.779 2248.55 861.691 2247.33 839.375 C 2228.6 829.485 2227.27 822.752 2226.32 802.777 C 2207.52 792.58 2205.45 788.228 2203.87 767.055 C 2184.34 758.394 2182.77 752.098 2181.11 731.806 C 2160.77 724.418 2159.27 717.809 2156.47 697.569 C 2137.83 692.811 2134.28 684.955 2132.27 666.98 C 2113.97 662.785 2114.6 660.176 2107.67 644.023 C 2106.13 640.43 2095.42 639.3 2092.55 636.889 C 2082.62 628.559 2086.13 617.261 2069.57 616.006 L 2068.64 617.28 C 2069.39 621.733 2070.64 624.983 2071.31 629.444 C 2088.98 635.217 2093.14 639.575 2094.85 658.138 C 2111.62 665.902 2114.93 670.522 2114.98 689.276 C 2130.91 697.668 2134.2 702.693 2134.05 721.02 C 2150.55 727.201 2152.23 733.363 2152.36 750.197 C 2169 757.774 2170.92 763.908 2170.09 781.515 C 2187.77 790.67 2188.73 796.588 2188.01 815.895 C 2205.69 825.508 2208.25 833.484 2206.89 853.015 C 2225.11 864.993 2226.59 871.311 2225.01 892.299 C 2242.61 902.795 2244.87 910.846 2243.26 930.776 C 2250.22 935.415 2256.4 939.463 2258.25 948.482 C 2259.18 953.031 2258.21 957.762 2255.55 961.571 C 2249.92 969.586 2237.8 971.926 2230.08 965.564 C 2222.44 959.28 2222.6 950.536 2222.93 941.638 C 2207.62 928.527 2203.8 924.418 2205.93 903.247 C 2192.8 892.428 2186.33 888.155 2188.13 871.818 C 2188.97 864.153 2177.04 856.706 2173.36 851.316 C 2170.83 847.779 2169.49 839.696 2167.88 836.258 C 2158.65 838.693 2148.39 841.634 2139.05 843.379 C 2140.13 845.705 2142.39 847.589 2144.48 849.047 C 2155.39 856.646 2154.18 866.41 2152.84 878.662 C 2171.07 889.223 2172.05 896.982 2170.46 916.878 C 2188.04 928.357 2190.05 935.182 2187.8 955.463 C 2194.52 960.522 2200.52 964.705 2201.49 974 C 2201.95 978.545 2200.56 983.084 2197.62 986.583 C 2194.64 990.124 2190.38 992.334 2185.77 992.723 C 2168.73 994.088 2166.74 977.326 2166.66 964.855 C 2157.56 957.347 2155.46 956.302 2149.87 945.787 C 2144.66 957.996 2139.15 971.116 2130.58 981.413 C 2130.1 976.151 2129.2 980.773 2129.6 975.97 C 2129.21 977.546 2129.13 978.318 2127.93 979.461 C 2102.44 981.37 2100.31 966.435 2103.26 945.679 C 2088.28 935.239 2087.8 928.378 2090.56 911.472 C 2076.21 901.5 2076.54 894.583 2078.32 878.594 C 2067.5 869.955 2071.19 871.115 2066.43 860.6 L 2065.85 859.346 L 2066.47 858.464 L 2063.61 856.806 C 2075.23 852.646 2059.54 841.576 2058.24 835.529 C 2056.97 829.656 2057.97 822.649 2058.42 816.607 C 2045.58 806.644 2046.54 799.676 2048.52 784.897 C 2035.24 775.025 2035.95 769.177 2038.13 753.642 C 2025.37 741.483 2025.05 738.292 2027.41 720.864 C 2014.21 708.569 2014.81 704.362 2016.41 687.374 C 2002.68 676.799 2004.39 670.484 2005.43 654.659 C 1992.13 644.705 1992.03 637.943 1994.18 622.492 C 1979.89 612.256 1981.42 604.45 1983.07 588.843 C 1973.59 581.546 1972.95 578.565 1970.52 567.161 L 1970.98 563.426 C 1972.56 554.381 1968.93 547.685 1967.05 538.991 C 1965.71 532.835 1966.21 525.943 1964.12 520.219 L 1963.5 517.903 L 1961.23 516.64 C 1974.99 511.934 1980.7 494.091 1970.9 482.694 C 1965.77 476.731 1954.55 477.553 1946.91 477.432 C 1945.82 475.165 1945.65 465.627 1946.44 463.035 L 1954.78 462.474 C 1950.87 461.669 1948.92 462.751 1945.44 460.81 C 1944.61 457.267 1942.03 448.684 1943.17 445.844 L 1943.07 443.976 L 1942.1 443.709 C 1939.67 440.734 1937.47 433.912 1937.22 430.071 L 1937.07 427.864 L 1936.18 427.637 C 1932.86 424.141 1930.56 420.8 1932.9 416.145 L 1937.39 415.368 C 1935.08 415.232 1934.1 415.114 1931.82 414.715 L 1932.02 413.293 C 1928.84 412.143 1928.34 410.574 1925.94 407.68 L 1925.25 404.43 z"></path>
<path transform="translate(0,0)" fill="rgb(252,190,26)" d="M 2083.92 691.624 C 2088.82 696.157 2092.77 697.101 2098.98 699.687 C 2097.88 717.451 2101.14 723.481 2116.93 731.602 C 2117.36 747.174 2119.32 754.738 2134.86 761.488 C 2134.89 777.158 2135.96 785.015 2151.78 792.156 C 2152.03 805.13 2151.52 809.589 2160.53 819.288 C 2167.82 821.847 2171.87 829.037 2167.88 836.258 C 2158.65 838.693 2148.39 841.634 2139.05 843.379 C 2138.04 842.18 2137.82 842.081 2138.03 840.538 C 2133.55 825.608 2142.56 823.705 2123.54 811.731 C 2125 793.908 2124.94 788.683 2109.81 777.667 C 2112.74 761.031 2110.8 754.884 2096.81 744.923 C 2099.19 727.091 2096.84 721.362 2082.18 710.683 C 2082.88 702.463 2083.51 702.402 2082.47 693.748 L 2083.92 691.624 z"></path>
<path transform="translate(0,0)" fill="rgb(4,2,3)" d="M 2160.53 819.288 C 2167.82 821.847 2171.87 829.037 2167.88 836.258 C 2158.65 838.693 2148.39 841.634 2139.05 843.379 C 2138.04 842.18 2137.82 842.081 2138.03 840.538 C 2147.12 837.856 2157.75 835.61 2167.06 833.19 C 2164.54 828.267 2162.54 824.483 2160.53 819.288 z"></path>
<path transform="translate(0,0)" fill="rgb(212,209,207)" d="M 1932.02 413.293 C 1941.1 412.58 1947.25 412.418 1956.42 413.268 C 1987.77 416.178 2019.35 444.7 2016.24 478.024 L 2015.36 478.653 C 2013.22 476.006 2013.88 465.746 2012.67 461.879 C 2002.2 428.581 1971.24 411.639 1937.39 415.368 C 1935.08 415.232 1934.1 415.114 1931.82 414.715 L 1932.02 413.293 z"></path>
<path transform="translate(0,0)" fill="rgb(212,209,207)" d="M 1937.07 427.864 C 1956.26 427.305 1974.03 430.328 1988.52 443.912 C 1998.16 452.674 2003.76 465.564 2004.64 478.47 C 2004.81 480.948 2002.74 481.14 2002.6 479.476 C 2001.12 461.337 1993.12 448.049 1977.28 438.453 C 1964.99 431.011 1951.78 430.19 1937.22 430.071 L 1937.07 427.864 z"></path>
<path transform="translate(0,0)" fill="rgb(212,209,207)" d="M 1943.07 443.976 C 1958.35 443.241 1968.46 445.45 1980.73 455.279 C 1984.62 458.397 1997.89 478.236 1992.48 480.893 C 1991.63 480.605 1987.88 460.858 1975.6 454.322 C 1960.4 446.228 1959.87 447.118 1943.17 445.844 L 1943.07 443.976 z"></path>
<path transform="translate(0,0)" fill="rgb(252,190,26)" d="M 2074.4 682.463 C 2067.79 678.277 2066.61 678.166 2069.33 668.401 C 2069.59 667.463 2077.53 670.005 2078.01 671.58 C 2078.74 675.026 2078.79 679.096 2079.21 682.764 L 2074.4 682.463 z"></path>
<path transform="translate(0,0)" fill="rgb(212,209,207)" d="M 1945.44 460.81 C 1953.83 458.956 1962.61 460.523 1969.84 465.165 C 1975.24 468.631 1978.97 473.625 1980.07 480.039 C 1980.32 480.671 1980.08 483.129 1979.04 483.002 C 1977.27 482.785 1977.62 477.949 1976.99 476.57 C 1972.91 467.739 1963.65 464.023 1954.78 462.474 C 1950.87 461.669 1948.92 462.751 1945.44 460.81 z"></path>
<path transform="translate(0,0)" fill="rgb(224,172,48)" d="M 2074.4 682.463 L 2079.21 682.764 C 2080.94 686.738 2081.8 687.963 2083.92 691.624 L 2082.47 693.748 C 2078.76 687.4 2080.26 688.534 2074.4 682.463 z"></path>
<path transform="translate(0,0)" fill="rgb(250,248,246)" d="M 2110.99 846.358 L 2113.12 849.073 C 2119.59 852.558 2117.71 854.28 2117.92 861.737 C 2118.32 876.035 2123.9 880.764 2134.14 889.174 C 2133.39 911.459 2134.46 913.692 2151.3 927.685 C 2148.55 942.546 2144.06 951.466 2137.31 964.781 C 2136.31 950.31 2134.46 946.346 2121.91 938.325 C 2125.13 920.648 2124.57 914.726 2109.62 903.569 C 2111.69 888.63 2111.76 881.905 2098.44 872.584 C 2099.66 864.443 2100.89 860.013 2098.11 852.159 C 2097.45 851.087 2096.98 850.343 2096.44 849.183 C 2101.27 848.144 2106.12 847.202 2110.99 846.358 z"></path>
<path transform="translate(0,0)" fill="rgb(4,2,3)" d="M 2110.99 846.358 L 2113.12 849.073 C 2108.13 850.208 2103.1 851.058 2098.11 852.159 C 2097.45 851.087 2096.98 850.343 2096.44 849.183 C 2101.27 848.144 2106.12 847.202 2110.99 846.358 z"></path>
<path transform="translate(0,0)" fill="rgb(252,190,26)" d="M 2048.1 706.327 C 2048.62 688.318 2038.96 688.121 2037.57 678.977 C 2041.48 679.253 2046.75 684.342 2050.03 687.036 C 2049.05 694.705 2048.99 697.477 2050.55 705.227 C 2054.71 712.644 2056.89 714.452 2064.03 719.153 C 2063.46 736.061 2062.95 742.319 2078.12 752.781 C 2077.52 769.316 2076.41 775.252 2091.29 785.485 C 2090.02 804.318 2090.49 807.816 2104.92 820.366 C 2103.98 831.836 2103.88 836.649 2110.99 846.358 C 2106.12 847.202 2101.27 848.144 2096.44 849.183 C 2094.25 847.058 2090.77 844.351 2088.34 842.332 C 2091.31 825.545 2091.06 821.932 2078.03 810.692 C 2081.4 795.398 2080.25 788.8 2067.42 779.141 C 2069.76 762.519 2069.62 758.61 2057.18 747.102 C 2060.35 730.555 2059.76 724.893 2045.84 714.52 C 2046.79 711.656 2047.38 709.259 2048.1 706.327 z"></path>
<path transform="translate(0,0)" fill="rgb(250,248,246)" d="M 2040.18 591.739 C 2048.42 596.951 2048.64 595.488 2058.16 597.089 L 2058.35 597.815 C 2059.46 602.132 2059.83 603.802 2061.3 608.193 C 2052.13 602.739 2051.78 603.546 2040.93 601.912 C 2040.13 598.823 2039.75 596.394 2038.81 593.206 L 2040.18 591.739 z"></path>
<path transform="translate(0,0)" fill="rgb(212,209,207)" d="M 2019.43 575.477 C 2024.38 575.993 2027.63 576.389 2032.61 577.18 C 2035.57 584.768 2035.06 584.997 2040.18 591.739 L 2038.81 593.206 C 2032.09 582.52 2029.47 582.581 2019.43 575.477 z"></path>
<path transform="translate(0,0)" fill="rgb(252,190,26)" d="M 2024.89 646.768 C 2031.75 649.378 2033.47 650.558 2034.45 657.249 C 2031.98 654.907 2025.45 650.611 2025.09 648.002 L 2024.89 646.768 z"></path>
<path transform="translate(0,0)" fill="rgb(224,172,48)" d="M 2012.97 619.192 C 2015.3 618.014 2015.98 618.128 2015.91 620.908 C 2014.04 621.64 2013.42 621.052 2012.97 619.192 z"></path>
<path transform="translate(0,0)" fill="rgb(252,190,26)" d="M 2053.36 644.223 C 2055.66 642.997 2055.35 643.306 2055.27 645.69 C 2053.38 646.522 2052.95 646.326 2053.36 644.223 z"></path>
<path transform="translate(0,0)" fill="rgb(4,2,3)" d="M 1740 158.125 C 1754.31 157.216 1876.35 156.25 1884.74 159.597 C 1890.21 161.779 1895 166.05 1897.25 171.551 C 1899.98 178.199 1900.46 241.183 1899.6 251.751 C 1899.32 255.233 1898.66 258.571 1897.24 261.789 C 1894.1 268.896 1888.63 272.089 1881.82 274.886 C 1865.61 275.979 1745.56 276.051 1737.49 273.525 C 1732.16 271.858 1726.98 267.086 1724.65 262.054 C 1720.6 253.309 1720.49 180.512 1724.45 171.269 C 1727.53 164.084 1733.23 161.001 1740 158.125 z"></path>
<path transform="translate(0,0)" fill="rgb(250,248,246)" d="M 1742.22 161.159 L 1830.46 161.12 C 1846.11 161.061 1866.92 160.209 1882.29 162.194 C 1888.31 162.971 1892.76 170.244 1895.78 175.173 C 1896.61 189.942 1898.48 251.016 1893.73 261.373 C 1891.02 267.286 1885.74 269.7 1880.02 271.853 C 1860.02 272.283 1746.96 273.707 1737.61 270.136 C 1733.09 268.405 1728.87 263.658 1727.19 259.177 C 1724.26 251.376 1724.39 179.466 1728.12 171.589 C 1730.98 165.553 1736.26 163.142 1742.22 161.159 z"></path>
<path transform="translate(0,0)" fill="rgb(4,2,3)" d="M 1788.66 181.564 C 1803.24 186.217 1830.64 205.837 1845.45 213.184 C 1851.49 216.185 1827.93 227.682 1825.88 228.861 C 1821.27 231.714 1796.31 246.904 1789.69 248.688 C 1789.26 248.802 1787.37 246.912 1787.33 246.34 C 1786.21 226.524 1786.95 205.892 1787.01 185.993 C 1787.01 184.619 1788.32 182.247 1788.66 181.564 z"></path>
<path transform="translate(0,0)" fill="rgb(250,248,246)" d="M 1790.25 186.181 C 1797.14 188.96 1808.94 196.353 1815.87 200.283 C 1824.61 205.244 1834.4 210.095 1842.83 215.212 C 1836.48 218.789 1830.45 222.302 1824.18 226.003 C 1812.91 232.552 1801.59 239.025 1790.22 245.42 C 1790.44 225.674 1790.45 205.927 1790.25 186.181 z"></path>
<path transform="translate(0,0)" fill="rgb(4,2,3)" d="M 469.267 409.21 C 478.818 408.477 493.014 411.874 496.987 421.68 C 506.638 445.498 511.977 473.317 519.707 497.563 C 528.198 524.197 523.318 539.897 494.897 546.972 C 471.751 553.495 448.516 561.59 425.059 567.727 C 415.922 568.412 402.204 564.324 398.491 555.557 C 387.059 528.567 380.676 498.653 371.862 470.612 C 367.097 460.548 371.043 440.117 382.832 435.654 C 408.715 425.855 442.481 415.92 469.267 409.21 z"></path>
<path transform="translate(0,0)" fill="rgb(250,248,246)" d="M 470.659 412.223 C 489.507 411.51 495.264 422.17 499.49 438.156 C 505.979 462.703 514.4 487.053 519.706 511.888 C 523.794 531.024 512.244 538.983 495.56 543.207 L 480.329 488.323 L 495.067 484.037 L 493.74 457.214 L 473.752 463.162 L 473.546 462.478 C 466.187 437.901 480.594 449.059 486.575 437.963 C 487.002 432.027 484.722 427.025 482.285 421.746 C 471.496 417.477 450.707 424.597 445.378 435.316 C 439.868 446.398 443.448 455.816 446.797 466.654 C 447.385 468.688 447.313 468.571 447.014 470.688 C 443.832 473.228 437.648 474.307 433.189 475.644 C 435.729 483.847 438.043 492.118 440.131 500.447 L 456.053 495.868 L 471.972 550.629 C 456.574 554.889 422.873 569.444 409.4 560.972 C 392.281 550.207 387.134 502.719 378.87 483.509 C 374.385 473.083 370.397 456.005 376.555 446.185 C 384.768 433.087 407.678 431.558 421.262 426.303 C 437.391 421.282 454.414 416.392 470.659 412.223 z"></path>
<path transform="translate(0,0)" fill="rgb(250,248,246)" d="M 476.039 423.159 C 477.978 422.8 477.022 422.888 479.246 423.78 C 481.675 427.503 482.945 434.592 484.01 439.163 C 462.596 444.039 466.517 448.877 471.445 467.542 C 476.747 465.351 485.277 463.17 491.008 461.522 C 490.981 467.935 491.551 474.994 491.934 481.445 L 476.193 486.157 C 482.149 504.33 486.525 525.05 492.553 544.029 L 478.232 548.371 C 477.462 548.638 476.368 548.504 475.449 548.492 C 472.037 543.15 460.515 499.563 458.212 491.306 L 442.478 496.029 L 437.18 477.946 L 452.286 473.872 C 442.317 441.104 439.038 432.276 476.039 423.159 z"></path>
<path transform="translate(0,0)" fill="rgb(4,2,3)" d="M 480.788 162.304 C 498.166 161.878 552.279 181.385 571.56 186.418 C 580.897 188.856 589.279 205.666 587.009 215.945 C 580.76 244.251 574.334 274.884 564.549 302.221 C 561.657 310.3 548.643 315.081 541.077 316.735 C 530.469 316.493 461.168 297.92 448.45 291.164 C 441.574 287.512 437.201 279.808 435.513 271.993 C 434.722 268.377 434.587 264.649 435.115 260.986 C 437.32 244.614 451.395 191.691 458.362 175.319 C 461.318 168.374 472.769 163.817 480.788 162.304 z"></path>
<path transform="translate(0,0)" fill="rgb(250,248,246)" d="M 477.266 166.098 C 490.29 164.375 520.892 175.04 534.666 178.811 C 554.429 185.035 588.22 186.148 583.247 216.193 C 578.844 242.791 570.342 273.062 562.439 299.091 C 560.314 306.09 551.33 310.435 544.911 312.857 C 529.712 314.666 507.009 304.669 491.744 301.272 C 479.983 298.37 468.514 295.379 456.9 291.932 C 445.988 288.692 435.934 275.058 438.059 263.734 C 443.215 236.262 450.969 208.147 458.887 181.34 C 461.17 173.608 470.409 168.81 477.266 166.098 z"></path>
<path transform="translate(0,0)" fill="rgb(4,2,3)" d="M 500.837 198.581 C 515.807 195.07 531.509 199.871 541.957 211.153 C 552.404 222.435 555.987 238.459 551.339 253.116 C 546.692 267.773 534.529 278.804 519.49 282.003 C 496.569 286.879 473.995 272.391 468.882 249.522 C 463.769 226.653 478.022 203.931 500.837 198.581 z"></path>
<path transform="translate(0,0)" fill="rgb(250,248,246)" d="M 502.466 201.551 C 523.82 197.068 544.755 210.778 549.181 232.143 C 553.607 253.509 539.841 274.408 518.464 278.776 C 497.167 283.128 476.366 269.426 471.956 248.141 C 467.547 226.857 481.194 206.018 502.466 201.551 z"></path>
<path transform="translate(0,0)" fill="rgb(4,2,3)" d="M 504.939 209.579 C 521.553 206.51 537.566 217.306 540.952 233.859 C 544.338 250.411 533.851 266.628 517.367 270.331 C 506.419 272.79 494.996 269.144 487.498 260.795 C 480.001 252.447 477.597 240.7 481.214 230.078 C 484.831 219.456 493.904 211.616 504.939 209.579 z"></path>
<path transform="translate(0,0)" fill="rgb(250,248,246)" d="M 507.531 212.506 C 522.751 210.857 536.425 221.861 538.069 237.082 C 539.713 252.303 528.704 265.973 513.482 267.612 C 498.269 269.249 484.607 258.247 482.964 243.034 C 481.321 227.82 492.318 214.155 507.531 212.506 z"></path>
<path transform="translate(0,0)" fill="rgb(4,2,3)" d="M 558.598 196.568 C 562.103 194.993 566.188 195.459 569.248 197.782 C 572.308 200.106 573.853 203.916 573.277 207.715 C 572.7 211.514 570.094 214.694 566.482 216.005 C 561.176 217.931 555.298 215.315 553.176 210.085 C 551.054 204.854 553.45 198.882 558.598 196.568 z"></path>
<path transform="translate(0,0)" fill="rgb(250,248,246)" d="M 560.659 199.536 C 563.133 198.757 565.836 199.388 567.709 201.183 C 569.582 202.978 570.327 205.651 569.654 208.156 C 568.98 210.661 566.995 212.6 564.474 213.214 C 560.752 214.12 556.981 211.911 555.951 208.22 C 554.922 204.53 557.004 200.688 560.659 199.536 z"></path>
<path transform="translate(0,0)" fill="rgb(4,2,3)" d="M 1569.12 212.159 C 1586.81 212.075 1604.5 212.149 1622.19 212.379 L 1622.25 413.736 L 1569.26 413.853 L 1569.12 212.159 z"></path>
<path transform="translate(0,0)" fill="rgb(250,248,246)" d="M 1572.3 215.83 L 1618.92 215.729 L 1619.02 341.456 C 1619.03 363.636 1619.6 388.729 1618.76 410.735 L 1572.35 410.753 C 1571.37 346.575 1572.3 280.183 1572.3 215.83 z"></path>
<path transform="translate(0,0)" fill="rgb(4,2,3)" d="M 1165.42 100.188 C 1183.27 98.3121 1194.78 103.241 1202.98 119.687 C 1205.11 116.156 1206.89 112.706 1209.79 109.712 C 1215.94 103.355 1224.42 99.7835 1233.27 99.8232 C 1242.59 99.8647 1251.24 103.85 1257.71 110.488 C 1264.67 117.603 1268.47 127.221 1268.25 137.169 C 1267.85 158.4 1248.05 174.201 1233.5 188.1 C 1224.14 197.185 1212.9 205.711 1202.54 213.725 C 1184.2 199.977 1166.24 186.184 1150.44 169.487 C 1127.19 144.909 1130.62 110.401 1165.42 100.188 z"></path>
<path transform="translate(0,0)" fill="rgb(250,248,246)" d="M 1167.73 103.26 C 1191.81 101.948 1198.8 114.017 1202.98 135.378 C 1205.08 126.18 1205.77 120.097 1212.21 112.599 C 1217.11 106.846 1224.18 103.386 1231.73 103.044 C 1240.08 102.608 1247.94 105.736 1254 111.396 C 1260.83 117.738 1264.78 126.593 1264.93 135.914 C 1265.18 155.082 1248.77 168.335 1236.05 181.235 C 1225.26 191.53 1214.61 200.19 1202.81 209.226 C 1184.61 197.039 1145.99 167.27 1140.27 146.068 C 1137.78 136.832 1139.14 126.981 1144.04 118.766 C 1149.66 109.432 1157.62 105.73 1167.73 103.26 z"></path>
<path transform="translate(0,0)" fill="rgb(4,2,3)" d="M 1642.98 106.051 L 1643.69 106.592 C 1644.14 110.259 1625.29 168.631 1623.04 175.879 C 1617.21 170.504 1611.28 165.247 1605.23 160.113 C 1571.72 194.522 1536.81 232.328 1502.77 265.66 C 1488.98 252.973 1462.6 233.304 1447.01 220.978 C 1404.64 253.822 1362.4 286.81 1319.68 319.203 C 1318.76 319.17 1317.85 319.137 1316.93 319.104 C 1318.16 314.09 1433.98 207.906 1447.81 194.72 C 1465.33 209.494 1483.96 223.76 1501.73 238.603 C 1531.09 208.035 1561.39 177.637 1591.13 147.393 L 1572.63 130.77 C 1594.98 123.538 1621.03 114.245 1642.98 106.051 z"></path>
<path transform="translate(0,0)" fill="rgb(250,248,246)" d="M 1579.41 132.189 C 1599.37 125.081 1619.37 118.089 1639.41 111.213 C 1633.46 130.403 1626.91 150.732 1621.51 170.024 C 1616.12 165.027 1610.82 160.036 1605.19 155.301 C 1571.31 190.145 1536.82 226.794 1502.56 261.048 C 1488.33 249.146 1459.06 227.536 1447.65 216.198 C 1420.54 237.307 1388.18 260.914 1362.39 282.337 L 1360.71 280.779 C 1388.7 254.495 1419.27 224.954 1447.91 199.765 C 1466.16 213.658 1484.14 228.702 1502.02 243.139 C 1533.66 211.821 1564.64 177.881 1596.54 147.227 L 1579.41 132.189 z"></path>
<path transform="translate(0,0)" fill="rgb(145,145,145)" d="M 1356.99 284.041 L 1357.3 286.376 C 1353.62 289.332 1350.89 291.011 1346.91 293.475 C 1350.17 290.351 1353.58 286.94 1356.99 284.041 z"></path>
<path transform="translate(0,0)" fill="rgb(212,209,207)" d="M 1360.71 280.779 L 1362.39 282.337 C 1360.7 283.717 1359 285.01 1357.3 286.376 L 1356.99 284.041 C 1358.26 282.987 1359.5 281.899 1360.71 280.779 z"></path>
<path transform="translate(0,0)" fill="rgb(4,2,3)" d="M 995.737 95.4216 C 1003.92 97.5219 1010.37 98.7161 1018.63 100.152 C 1022.18 121.19 1027.97 133.253 1049.41 139.393 C 1048.05 148.413 1046.87 157.459 1045.86 166.524 C 1032.2 162.254 1024.69 160.673 1013.37 152.046 C 1011.46 166.888 1008.51 203.197 1003.11 215.161 C 998.426 225.662 989.719 233.838 978.945 237.848 C 952.899 247.467 928.075 232.537 919.38 207.109 C 910.518 171.714 942.856 137.142 977.203 152.706 C 976.563 160.144 976.056 170.062 974.183 177.08 C 970.102 179.502 959.755 174.484 952.874 178.853 C 944.438 184.211 942.341 196.343 947.691 204.476 C 950.578 208.827 955.084 211.843 960.206 212.854 C 985.154 217.716 984.323 179.224 986.495 162.94 L 995.737 95.4216 z"></path>
<path transform="translate(0,0)" fill="rgb(250,248,246)" d="M 998.399 99.425 L 1015.95 103.412 C 1019.15 122.655 1026.32 135.371 1045.48 141.905 L 1043.17 161.824 C 1028.06 157.631 1022.28 155.705 1011.12 144.691 C 1006.14 176.739 1010.65 229.626 970.32 236.594 C 959.252 238.456 947.9 235.796 938.811 229.211 C 927.628 221.101 923.328 211.381 921.247 198.249 C 920.584 166.485 942.654 147.878 973.842 154.107 C 973.58 159.885 972.368 167.932 971.657 173.837 C 964.347 172.396 958.884 171.792 951.962 175.826 C 946.772 178.813 943.107 183.878 941.892 189.743 C 940.569 196.28 942.086 203.072 946.065 208.425 C 953.323 218.119 967.584 219.557 976.957 212.21 C 980.194 209.696 982.626 206.291 983.952 202.413 C 986.297 195.696 988.945 169.513 989.99 161.221 L 998.399 99.425 z"></path>
<path transform="translate(0,0)" fill="rgb(4,2,3)" d="M 1395.95 271.375 L 1449.02 271.163 C 1448.47 318.366 1448.99 366.6 1449 413.887 L 1395.98 413.876 L 1395.95 271.375 z"></path>
<path transform="translate(0,0)" fill="rgb(250,248,246)" d="M 1399.29 274.764 L 1445.67 274.776 C 1446.44 299.436 1445.13 327.385 1445.66 352.466 C 1445.94 365.71 1446.57 398.567 1445.36 410.802 L 1399.37 410.733 L 1399.29 274.764 z"></path>
<path transform="translate(0,0)" fill="rgb(4,2,3)" d="M 1478.44 279.245 L 1531.04 279.345 C 1531.12 323.751 1531.73 369.44 1531 413.744 L 1478.37 413.873 C 1478.89 369.383 1478.33 323.868 1478.44 279.245 z"></path>
<path transform="translate(0,0)" fill="rgb(250,248,246)" d="M 1481.86 282.258 L 1527.82 282.258 C 1527.78 322.172 1529.18 371.088 1527.58 410.306 L 1481.73 410.672 L 1481.86 282.258 z"></path>
<path transform="translate(0,0)" fill="rgb(4,2,3)" d="M 2085.85 165.522 C 2087.91 165.371 2088.95 165.697 2090.95 166.105 C 2097.94 171.115 2102.7 185.945 2107.76 193.798 C 2116.21 195.073 2134.57 195.688 2137.88 203.892 C 2136.84 211.486 2124.61 221.809 2118.69 227.728 C 2119.93 236.171 2125.33 255.685 2118.44 260.728 C 2111.14 261.495 2097.7 253.283 2090.43 249.595 C 2085.21 248.769 2069.23 261.565 2061.34 262.608 C 2052.49 259.153 2058.85 235.799 2060.21 228.27 C 2054.04 222.322 2038.25 210.206 2041.21 201.644 C 2046.79 196.156 2062.74 194.956 2071.09 193.602 C 2075.29 184.733 2080.63 173.681 2085.85 165.522 z"></path>
<path transform="translate(0,0)" fill="rgb(250,248,246)" d="M 2087.63 168.345 C 2093.92 170.749 2101.11 188.768 2105.47 196.446 C 2113.37 198.388 2129.46 199.205 2133.83 204.584 C 2133.66 209.68 2119.84 221.872 2115.16 226.721 C 2116.2 234.501 2119.31 247.482 2118.48 255.153 C 2118.31 256.661 2117.63 256.569 2116.04 257.454 C 2110.13 256.809 2097.27 249.518 2091.31 246.46 C 2082.15 244.269 2068.36 261.129 2061.48 257.155 C 2058.57 250.744 2062.09 234.347 2063.18 226.73 C 2058.7 222.217 2041.79 208.384 2045.52 202.596 C 2050.65 199.799 2066.49 197.642 2073.12 196.489 L 2087.63 168.345 z"></path>
<path transform="translate(0,0)" fill="rgb(4,2,3)" d="M 1318.13 338.939 C 1335.72 339.115 1353.32 339.153 1370.91 339.054 C 1371.5 362.595 1371.43 390.033 1371.2 413.797 C 1353.48 413.563 1335.75 413.571 1318.03 413.819 C 1317.91 388.859 1317.94 363.899 1318.13 338.939 z"></path>
<path transform="translate(0,0)" fill="rgb(250,248,246)" d="M 1321.52 342.349 L 1367.81 342.286 C 1367.92 364.076 1368.2 388.575 1367.74 410.244 L 1321.38 410.199 C 1321.12 389.777 1320.69 362.494 1321.52 342.349 z"></path>
<path transform="translate(0,0)" fill="rgb(4,2,3)" d="M 1472.14 689.516 C 1480.85 689.627 1480.43 701.285 1481.42 708.556 C 1503.44 720.189 1504.62 720.301 1481.5 731.378 C 1479.05 751.308 1479.92 758.952 1463.07 740.64 C 1459.97 737.176 1458.07 737.975 1453.55 739.067 C 1432.09 744.249 1440.66 732.839 1447.09 719.296 C 1445.27 715.852 1438.99 705.548 1439.32 702.498 C 1439.45 701.316 1440.08 700.247 1441.06 699.568 C 1443.95 697.585 1455.43 700.695 1459.83 701.501 C 1464.39 697.322 1467.77 693.759 1472.14 689.516 z"></path>
<path transform="translate(0,0)" fill="rgb(250,248,246)" d="M 1473.86 692.729 C 1475.21 694.022 1475.66 694.497 1476.03 696.461 C 1476.96 701.22 1477.94 705.968 1478.99 710.703 C 1485.15 714.214 1489.6 716.38 1495.65 720.326 C 1489.93 723.328 1484.13 726.144 1478.47 729.267 C 1477.58 735.869 1477.09 742.446 1476.31 749.057 C 1471.25 744.302 1467.61 740.485 1462.72 735.522 C 1458.65 734.202 1447.16 737.004 1442.14 737.73 C 1444.87 731.179 1447.36 725.626 1450.75 719.363 C 1447.34 713.496 1444.19 707.251 1441.02 701.226 C 1447.72 702.636 1454.36 703.663 1461.04 705.057 C 1465.37 700.599 1469.29 696.975 1473.86 692.729 z"></path>
<path transform="translate(0,0)" fill="rgb(4,2,3)" d="M 2265.99 404.483 C 2273.02 406.116 2274.82 412.597 2278.07 419.014 L 2279.31 421.464 C 2303.37 425.532 2303.67 425.975 2285.94 442.79 C 2289.36 467.196 2291.29 467.731 2268.34 456.644 C 2251.36 460.179 2244.09 476.791 2249.68 443.209 C 2231.27 424.322 2231.92 425.466 2256.81 421.188 C 2259.82 414.871 2261.89 410.208 2265.99 404.483 z"></path>
<path transform="translate(0,0)" fill="rgb(250,248,246)" d="M 2267.44 407.528 C 2270.54 410.234 2274.81 419.836 2277.39 424.422 C 2283.67 425.573 2289.67 426.571 2296.01 427.81 C 2291.42 433.354 2287.47 437.037 2282.46 442.202 C 2283.39 448.725 2284.78 455.151 2285.87 461.675 C 2280.01 458.762 2274.26 455.936 2268.48 452.849 C 2264.88 453.525 2254.64 459.195 2250.17 461.236 C 2251.04 454.657 2251.81 448.896 2252.97 442.331 C 2248.63 437.254 2243.78 432.529 2239.26 427.439 C 2245.88 426.221 2252.54 425.302 2259.06 424.011 C 2261.58 418.09 2264.26 413.13 2267.44 407.528 z"></path>
<path transform="translate(0,0)" fill="rgb(4,2,3)" d="M 458.014 694.876 C 465.12 697.264 468.252 703.663 473.254 710.147 C 499.694 709.111 497.353 710.255 484.112 729.991 C 491.921 751.534 492.684 754.32 469.178 746.091 C 451.638 756.917 449.179 765.995 448.845 736.819 C 445.747 734.484 435.083 727.692 434.074 724.975 C 433.664 723.88 433.732 722.663 434.262 721.62 C 435.797 718.593 447.827 715.175 451.366 714.081 C 452.918 707.764 454.541 700.365 458.014 694.876 z"></path>
<path transform="translate(0,0)" fill="rgb(250,248,246)" d="M 459.719 698.456 C 463.5 701.809 468.607 709.007 472.087 713.258 C 478.343 713.028 484.605 713.045 490.859 713.31 C 487.131 719.889 484.556 723.065 480.429 729.148 C 482.739 735.691 484.799 741.163 486.713 747.869 C 481.229 746.583 472.195 743.448 468.158 742.73 C 462.619 746.57 457.923 750.338 452.557 754.375 C 452.051 747.84 451.796 741.288 451.794 734.733 C 446.284 730.839 440.91 727.545 435.429 723.484 C 442.199 720.471 447.163 718.761 454.155 716.275 C 456.049 709.145 456.381 705.449 459.719 698.456 z"></path>
</svg>